<?xml version="1.0" encoding="UTF-8"?>
<svg version="1.1" xmlns="http://www.w3.org/2000/svg" width="127" height="134">
<path d="M0 0 C0.82693863 -0.00997513 1.65387726 -0.01995026 2.50587463 -0.03022766 C3.40464828 -0.03089233 4.30342194 -0.03155701 5.22943115 -0.03224182 C6.1827684 -0.04056534 7.13610565 -0.04888885 8.11833191 -0.0574646 C11.27226846 -0.08157346 14.42599814 -0.09033855 17.58001709 -0.09693909 C19.77474021 -0.10590584 21.96946271 -0.1150277 24.16418457 -0.1242981 C28.76749151 -0.14079384 33.37072567 -0.14848909 37.97406006 -0.15138245 C43.86319988 -0.15676195 49.75165238 -0.19442231 55.6405983 -0.24012661 C60.17546056 -0.26992084 64.71015794 -0.27710655 69.24510956 -0.2781086 C71.41557711 -0.28230738 73.58604532 -0.29472785 75.75641632 -0.31562614 C78.79871082 -0.34258416 81.83942059 -0.33770101 84.8817749 -0.32521057 C85.77245163 -0.34004486 86.66312836 -0.35487915 87.58079529 -0.37016296 C93.84272307 -0.29722344 97.9405208 1.32511506 102.81439209 5.27415466 C106.63978857 9.40155613 109.05405268 13.03199221 109.08854675 18.72550964 C109.09852188 19.61134735 109.10849701 20.49718506 109.11877441 21.40986633 C109.11943909 22.37409515 109.12010376 23.33832397 109.12078857 24.33177185 C109.12911209 25.35338409 109.13743561 26.37499634 109.14601135 27.42756653 C109.17012855 30.80875957 109.17888626 34.18975969 109.18548584 37.57102966 C109.19445182 39.92269448 109.20357365 42.27435871 109.21284485 44.62602234 C109.22934276 49.55887742 109.23703627 54.49166458 109.2399292 59.42454529 C109.24530953 65.73740441 109.28297264 72.0496226 109.32867336 78.36230087 C109.35845693 83.22142349 109.36565307 88.08039213 109.36665535 92.93959808 C109.37085608 95.26636435 109.38328435 97.59313114 109.4041729 99.91980743 C109.43110883 103.1799998 109.42625389 106.43871153 109.41375732 109.69895935 C109.42859161 110.65509125 109.4434259 111.61122314 109.45870972 112.59632874 C109.38852555 119.0450922 107.92816939 123.26721363 103.81439209 128.27415466 C99.81436391 131.98149786 96.16727666 134.51233526 90.62878418 134.54830933 C89.80184555 134.55828445 88.97490692 134.56825958 88.12290955 134.57853699 C86.77474907 134.579534 86.77474907 134.579534 85.39935303 134.58055115 C84.44601578 134.58887466 83.49267853 134.59719818 82.51045227 134.60577393 C79.35651572 134.62988279 76.20278604 134.63864787 73.04876709 134.64524841 C70.85404397 134.65421517 68.65932147 134.66333703 66.46459961 134.67260742 C61.86129267 134.68910316 57.25805851 134.69679842 52.65472412 134.69969177 C46.7655843 134.70507128 40.8771318 134.74273163 34.98818588 134.78843594 C30.45332362 134.81823017 25.91862624 134.82541588 21.38367462 134.82641792 C19.21320707 134.8306167 17.04273886 134.84303717 14.87236786 134.86393547 C11.83007336 134.89089348 8.78936359 134.88601033 5.74700928 134.8735199 C4.85633255 134.88835419 3.96565582 134.90318848 3.04798889 134.91847229 C-3.21393889 134.84553277 -7.31173662 133.22319427 -12.18560791 129.27415466 C-16.01100439 125.1467532 -18.4252685 121.51631711 -18.45976257 115.82279968 C-18.4697377 114.93696198 -18.47971283 114.05112427 -18.48999023 113.13844299 C-18.49065491 112.17421417 -18.49131958 111.20998535 -18.49200439 110.21653748 C-18.50032791 109.19492523 -18.50865143 108.17331299 -18.51722717 107.1207428 C-18.54134437 103.73954975 -18.55010208 100.35854963 -18.55670166 96.97727966 C-18.56566764 94.62561485 -18.57478948 92.27395062 -18.58406067 89.92228699 C-18.60055858 84.9894319 -18.60825209 80.05664475 -18.61114502 75.12376404 C-18.61652535 68.81090492 -18.65418846 62.49868672 -18.69988918 56.18600845 C-18.72967275 51.32688584 -18.7368689 46.4679172 -18.73787117 41.60871124 C-18.7420719 39.28194498 -18.75450017 36.95517819 -18.77538872 34.62850189 C-18.80232465 31.36830953 -18.79746971 28.1095978 -18.78497314 24.84934998 C-18.79980743 23.89321808 -18.81464172 22.93708618 -18.82992554 21.95198059 C-18.75974137 15.50321712 -17.29938521 11.2810957 -13.18560791 6.27415466 C-9.18557973 2.56681147 -5.53849248 0.03597407 0 0 Z " fill="#714C25" transform="translate(18.18560791015625,-0.2741546630859375)"/>
<path d="M0 0 C0.82693863 -0.00997513 1.65387726 -0.01995026 2.50587463 -0.03022766 C3.40464828 -0.03089233 4.30342194 -0.03155701 5.22943115 -0.03224182 C6.1827684 -0.04056534 7.13610565 -0.04888885 8.11833191 -0.0574646 C11.27226846 -0.08157346 14.42599814 -0.09033855 17.58001709 -0.09693909 C19.77474021 -0.10590584 21.96946271 -0.1150277 24.16418457 -0.1242981 C28.76749151 -0.14079384 33.37072567 -0.14848909 37.97406006 -0.15138245 C43.86319988 -0.15676195 49.75165238 -0.19442231 55.6405983 -0.24012661 C60.17546056 -0.26992084 64.71015794 -0.27710655 69.24510956 -0.2781086 C71.41557711 -0.28230738 73.58604532 -0.29472785 75.75641632 -0.31562614 C78.79871082 -0.34258416 81.83942059 -0.33770101 84.8817749 -0.32521057 C85.77245163 -0.34004486 86.66312836 -0.35487915 87.58079529 -0.37016296 C93.84272307 -0.29722344 97.9405208 1.32511506 102.81439209 5.27415466 C106.63978857 9.40155613 109.05405268 13.03199221 109.08854675 18.72550964 C109.09852188 19.61134735 109.10849701 20.49718506 109.11877441 21.40986633 C109.11943909 22.37409515 109.12010376 23.33832397 109.12078857 24.33177185 C109.12911209 25.35338409 109.13743561 26.37499634 109.14601135 27.42756653 C109.17012855 30.80875957 109.17888626 34.18975969 109.18548584 37.57102966 C109.19445182 39.92269448 109.20357365 42.27435871 109.21284485 44.62602234 C109.22934276 49.55887742 109.23703627 54.49166458 109.2399292 59.42454529 C109.24530953 65.73740441 109.28297264 72.0496226 109.32867336 78.36230087 C109.35845693 83.22142349 109.36565307 88.08039213 109.36665535 92.93959808 C109.37085608 95.26636435 109.38328435 97.59313114 109.4041729 99.91980743 C109.43110883 103.1799998 109.42625389 106.43871153 109.41375732 109.69895935 C109.42859161 110.65509125 109.4434259 111.61122314 109.45870972 112.59632874 C109.38852555 119.0450922 107.92816939 123.26721363 103.81439209 128.27415466 C99.81436391 131.98149786 96.16727666 134.51233526 90.62878418 134.54830933 C89.80184555 134.55828445 88.97490692 134.56825958 88.12290955 134.57853699 C86.77474907 134.579534 86.77474907 134.579534 85.39935303 134.58055115 C84.44601578 134.58887466 83.49267853 134.59719818 82.51045227 134.60577393 C79.35651572 134.62988279 76.20278604 134.63864787 73.04876709 134.64524841 C70.85404397 134.65421517 68.65932147 134.66333703 66.46459961 134.67260742 C61.86129267 134.68910316 57.25805851 134.69679842 52.65472412 134.69969177 C46.7655843 134.70507128 40.8771318 134.74273163 34.98818588 134.78843594 C30.45332362 134.81823017 25.91862624 134.82541588 21.38367462 134.82641792 C19.21320707 134.8306167 17.04273886 134.84303717 14.87236786 134.86393547 C11.83007336 134.89089348 8.78936359 134.88601033 5.74700928 134.8735199 C4.85633255 134.88835419 3.96565582 134.90318848 3.04798889 134.91847229 C-3.21393889 134.84553277 -7.31173662 133.22319427 -12.18560791 129.27415466 C-16.01100439 125.1467532 -18.4252685 121.51631711 -18.45976257 115.82279968 C-18.4697377 114.93696198 -18.47971283 114.05112427 -18.48999023 113.13844299 C-18.49065491 112.17421417 -18.49131958 111.20998535 -18.49200439 110.21653748 C-18.50032791 109.19492523 -18.50865143 108.17331299 -18.51722717 107.1207428 C-18.54134437 103.73954975 -18.55010208 100.35854963 -18.55670166 96.97727966 C-18.56566764 94.62561485 -18.57478948 92.27395062 -18.58406067 89.92228699 C-18.60055858 84.9894319 -18.60825209 80.05664475 -18.61114502 75.12376404 C-18.61652535 68.81090492 -18.65418846 62.49868672 -18.69988918 56.18600845 C-18.72967275 51.32688584 -18.7368689 46.4679172 -18.73787117 41.60871124 C-18.7420719 39.28194498 -18.75450017 36.95517819 -18.77538872 34.62850189 C-18.80232465 31.36830953 -18.79746971 28.1095978 -18.78497314 24.84934998 C-18.79980743 23.89321808 -18.81464172 22.93708618 -18.82992554 21.95198059 C-18.75974137 15.50321712 -17.29938521 11.2810957 -13.18560791 6.27415466 C-9.18557973 2.56681147 -5.53849248 0.03597407 0 0 Z M40.81439209 1.27415466 C39.54185773 4.9220865 38.48610015 8.46780897 37.81439209 12.27415466 C35.50439209 12.60415466 33.19439209 12.93415466 30.81439209 13.27415466 C30.4392749 12.69665466 30.06415771 12.11915466 29.67767334 11.52415466 C29.16591553 10.78165466 28.65415771 10.03915466 28.12689209 9.27415466 C27.6280249 8.53165466 27.12915771 7.78915466 26.61517334 7.02415466 C24.92479909 5.0663664 24.92479909 5.0663664 22.35736084 4.77415466 C18.94652471 5.44479525 17.77700954 6.41434067 15.81439209 9.27415466 C15.76306005 12.35017402 15.76306005 12.35017402 16.56439209 15.52415466 C16.78611084 16.60181091 17.00782959 17.67946716 17.23626709 18.78977966 C17.42704834 19.60962341 17.61782959 20.42946716 17.81439209 21.27415466 C15.33939209 22.75915466 15.33939209 22.75915466 12.81439209 24.27415466 C11.94814209 23.61415466 11.08189209 22.95415466 10.18939209 22.27415466 C6.56739653 20.12778692 4.92892591 19.54268198 0.81439209 20.27415466 C-1.26416871 21.85111098 -1.26416871 21.85111098 -2.18560791 24.27415466 C-2.0728617 28.67125668 -0.0317796 31.06073501 2.81439209 34.27415466 C1.82439209 34.93415466 0.83439209 35.59415466 -0.18560791 36.27415466 C-1.24207463 38.56732477 -1.24207463 38.56732477 -2.01763916 41.30540466 C-2.499104 42.85095032 -2.499104 42.85095032 -2.99029541 44.42771912 C-3.32287354 45.53204285 -3.65545166 46.63636658 -3.99810791 47.77415466 C-4.70140359 50.0492443 -5.40583974 52.32398169 -6.11138916 54.59837341 C-6.45895264 55.7267865 -6.80651611 56.85519958 -7.16461182 58.01780701 C-8.8240799 63.3104864 -10.62260613 68.55584012 -12.45831299 73.78977966 C-13.61975873 77.18571502 -14.18560791 79.63407316 -14.18560791 83.27415466 C-11.43749511 84.11418914 -8.6874121 84.94637617 -5.93560791 85.77415466 C-4.76965088 86.13186951 -4.76965088 86.13186951 -3.58013916 86.49681091 C-2.8260376 86.72239685 -2.07193604 86.94798279 -1.29498291 87.18040466 C-0.60372314 87.38987732 0.08753662 87.59934998 0.79974365 87.81517029 C3.12002473 88.42224251 3.12002473 88.42224251 6.81439209 88.27415466 C6.36966553 88.87743591 5.92493896 89.48071716 5.46673584 90.10227966 C4.9008374 90.90149841 4.33493896 91.70071716 3.75189209 92.52415466 C2.89917725 93.70751404 2.89917725 93.70751404 2.02923584 94.91477966 C0.60706903 97.15429272 0.60706903 97.15429272 1.02142334 99.42649841 C2.16956004 102.10171349 3.48918444 103.53024892 5.81439209 105.27415466 C9.29618318 105.27415466 11.46654481 103.89667473 14.31439209 102.08665466 C15.46939209 101.48852966 16.62439209 100.89040466 17.81439209 100.27415466 C20.53314209 101.16087341 20.53314209 101.16087341 22.81439209 102.27415466 C22.62361084 103.02181091 22.43282959 103.76946716 22.23626709 104.53977966 C20.67356292 110.42098 20.67356292 110.42098 22.31439209 115.96165466 C25.63286982 117.70385547 27.12950336 118.17657639 30.81439209 117.27415466 C32.20258376 115.27862914 33.29482703 113.19445844 34.44720459 111.05540466 C35.1239624 110.17368591 35.1239624 110.17368591 35.81439209 109.27415466 C39.62689209 108.77415466 39.62689209 108.77415466 42.81439209 109.27415466 C43.30267334 111.29238383 43.79095459 113.310613 44.27923584 115.32884216 C44.76286201 117.33272036 44.76286201 117.33272036 45.81439209 119.27415466 C48.78439209 119.27415466 51.75439209 119.27415466 54.81439209 119.27415466 C56.40577294 115.09677993 57.02717267 111.74254682 56.81439209 107.27415466 C62.05262073 106.74145345 62.05262073 106.74145345 64.81439209 107.27415466 C66.48506342 109.27081064 68.15192195 111.27066501 69.81439209 113.27415466 C73.49629745 113.53421782 73.49629745 113.53421782 76.81439209 112.27415466 C79.11863972 109.49685749 79.11863972 109.49685749 78.57220459 106.57493591 C78.2589624 105.09573669 78.2589624 105.09573669 77.93939209 103.58665466 C77.63388428 102.09585388 77.63388428 102.09585388 77.32220459 100.57493591 C77.15462646 99.8156781 76.98704834 99.05642029 76.81439209 98.27415466 C78.46439209 96.95415466 80.11439209 95.63415466 81.81439209 94.27415466 C82.70126709 94.76915466 83.58814209 95.26415466 84.50189209 95.77415466 C87.72382886 97.2331449 89.36409509 97.83366228 92.81439209 97.27415466 C94.83390271 96.33818151 94.83390271 96.33818151 95.81439209 94.27415466 C95.88655848 90.77693573 95.88655848 90.77693573 94.81439209 87.27415466 C94.11314209 86.63477966 93.41189209 85.99540466 92.68939209 85.33665466 C90.81439209 83.27415466 90.81439209 83.27415466 90.77532959 81.25462341 C91.03537591 79.24804976 91.4175797 77.25821662 91.81439209 75.27415466 C92.82759521 75.32636169 92.82759521 75.32636169 93.86126709 75.37962341 C95.19931396 75.42022888 95.19931396 75.42022888 96.56439209 75.46165466 C97.44611084 75.49645935 98.32782959 75.53126404 99.23626709 75.56712341 C102.30438786 75.21847333 103.60378935 74.39391071 105.81439209 72.27415466 C106.64795622 69.81827503 106.64795622 69.81827503 105.81439209 67.27415466 C102.41495477 64.5071708 98.93496086 62.72847305 94.81439209 61.27415466 C94.31939209 57.80915466 94.31939209 57.80915466 93.81439209 54.27415466 C94.74251709 53.98540466 95.67064209 53.69665466 96.62689209 53.39915466 C99.91230876 52.38665466 99.91230876 52.38665466 102.81439209 50.27415466 C103.17737145 48.29668344 103.17737145 48.29668344 103.00189209 46.14915466 C102.94001709 44.87040466 102.87814209 43.59165466 102.81439209 42.27415466 C99.63948269 40.36629626 97.70853998 40.11325056 94.06439209 40.64915466 C93.26517334 40.76001404 92.46595459 40.87087341 91.64251709 40.98509216 C91.03923584 41.08048279 90.43595459 41.17587341 89.81439209 41.27415466 C88.50189209 38.14915466 88.50189209 38.14915466 87.81439209 34.27415466 C89.45608737 32.25360662 91.12350987 30.25372409 92.81439209 28.27415466 C92.99819575 24.55478861 92.99819575 24.55478861 91.81439209 21.27415466 C89.0830753 19.00660834 89.0830753 19.00660834 86.43939209 19.46165466 C83.71375928 20.16657015 83.71375928 20.16657015 81.31439209 21.96165466 C78.81439209 23.27415466 78.81439209 23.27415466 76.06439209 22.64915466 C73.81439209 21.27415466 73.81439209 21.27415466 72.81439209 18.27415466 C73.0589036 15.71099948 73.45232371 13.19217307 73.85345459 10.64915466 C74.04205602 8.22758973 74.04205602 8.22758973 72.51751709 6.50071716 C70.7583053 5.06189681 70.7583053 5.06189681 67.93939209 4.64915466 C64.38559007 5.35991507 63.99380664 5.84768027 61.93939209 8.64915466 C60.19012883 11.24997712 60.19012883 11.24997712 59.81439209 14.27415466 C57.17439209 13.94415466 54.53439209 13.61415466 51.81439209 13.27415466 C51.75831787 12.22614685 51.75831787 12.22614685 51.70111084 11.15696716 C51.63536865 10.24688904 51.56962646 9.33681091 51.50189209 8.39915466 C51.44388428 7.49423279 51.38587646 6.58931091 51.32611084 5.65696716 C51.02618819 2.91193865 51.02618819 2.91193865 47.81439209 1.27415466 C45.48239821 1.19510402 43.14606587 1.18616697 40.81439209 1.27415466 Z " fill="#FBFBFA" transform="translate(18.18560791015625,-0.2741546630859375)"/>
<path d="M0 0 C9.50682739 6.57035561 16.07623768 15.74433804 19.7109375 26.6484375 C21.50143314 43.01374945 19.4336635 54.73663938 9.9609375 68.12109375 C2.44823758 76.82442245 -10.25496899 81.95241455 -21.4453125 82.921875 C-30.64028747 83.20116162 -38.02315999 81.64221177 -46.2890625 77.6484375 C-46.6190625 76.9884375 -46.9490625 76.3284375 -47.2890625 75.6484375 C-42.3390625 75.1534375 -42.3390625 75.1534375 -37.2890625 74.6484375 C-36.7940625 72.6684375 -36.7940625 72.6684375 -36.2890625 70.6484375 C-35.60199219 70.80699219 -34.91492187 70.96554688 -34.20703125 71.12890625 C-22.53861402 73.20641561 -12.80061697 71.5730093 -3.0390625 64.9609375 C5.17298829 58.32493686 8.62403673 49.59220612 10.02734375 39.3359375 C10.53752929 30.11968256 6.56948392 21.62649547 0.7734375 14.65625 C-6.81040697 7.27349231 -15.57371785 4.18167042 -25.97998047 4.13989258 C-33.06520836 4.33549703 -38.38445803 6.77702231 -44.2890625 10.6484375 C-44.90265625 11.03128906 -45.51625 11.41414063 -46.1484375 11.80859375 C-51.53111469 15.67912709 -55.22489875 22.45594626 -57.2890625 28.6484375 C-58.17076794 41.04269679 -57.63648128 50.84927482 -49.8515625 61.0859375 C-47.87100744 63.06649256 -46.27871918 64.41230349 -43.9765625 65.8984375 C-43.0896875 66.4759375 -42.2028125 67.0534375 -41.2890625 67.6484375 C-41.2890625 68.3084375 -41.2890625 68.9684375 -41.2890625 69.6484375 C-44.00570754 69.26034535 -45.11422885 68.83469046 -47.0234375 66.80078125 C-49.73722268 64.22268533 -52.37685173 62.98312785 -55.7890625 61.4609375 C-56.913125 60.95175781 -58.0371875 60.44257812 -59.1953125 59.91796875 C-64.07824024 57.91424209 -68.25321004 57.42853905 -73.5390625 57.0859375 C-74.80234375 57.00214844 -76.065625 56.91835937 -77.3671875 56.83203125 C-78.81351563 56.74115234 -78.81351563 56.74115234 -80.2890625 56.6484375 C-79.71149482 51.46499808 -78.49150219 46.8518114 -76.671875 41.95703125 C-76.41405243 41.24869644 -76.15622986 40.54036163 -75.89059448 39.81056213 C-75.34746569 38.32279513 -74.80103807 36.83622862 -74.25146484 35.35083008 C-73.41613917 33.09155421 -72.59203463 30.82842437 -71.76953125 28.56445312 C-71.23763588 27.11173855 -70.70510499 25.65925647 -70.171875 24.20703125 C-69.92801056 23.53812363 -69.68414612 22.869216 -69.43289185 22.18003845 C-67.95337793 18.19602266 -66.25583751 14.41499719 -64.2890625 10.6484375 C-63.6290625 10.6484375 -62.9690625 10.6484375 -62.2890625 10.6484375 C-61.9590625 9.6584375 -61.6290625 8.6684375 -61.2890625 7.6484375 C-60.4640625 7.4009375 -59.6390625 7.1534375 -58.7890625 6.8984375 C-55.40175829 5.688686 -53.8565282 4.60250408 -51.1640625 2.3359375 C-35.95050459 -9.70393118 -16.49104901 -9.73703576 0 0 Z " fill="#F8F8F4" transform="translate(88.2890625,22.3515625)"/>
<path d="M0 0 C3.625 0.1875 3.625 0.1875 6.625 2.1875 C7.13671875 4.5703125 7.13671875 4.5703125 7.3125 7.3125 C7.41111328 8.67761719 7.41111328 8.67761719 7.51171875 10.0703125 C7.56779297 11.11832031 7.56779297 11.11832031 7.625 12.1875 C10.265 12.5175 12.905 12.8475 15.625 13.1875 C15.893125 12.630625 16.16125 12.07375 16.4375 11.5 C16.829375 10.736875 17.22125 9.97375 17.625 9.1875 C18.0375 8.28 18.45 7.3725 18.875 6.4375 C20.625 4.1875 20.625 4.1875 23.625 3.6875 C26.625 4.1875 26.625 4.1875 28.34765625 5.34375 C30.66937019 8.69497011 29.16424749 12.54388799 28.55859375 16.375 C28.3162204 19.28006545 28.3162204 19.28006545 30.40625 21.10546875 C32.6937567 22.50691637 32.6937567 22.50691637 35.6875 21.5 C38.72747901 20.23980583 38.72747901 20.23980583 41.625 18.1875 C44.1875 18.375 44.1875 18.375 46.625 19.1875 C48.82509864 22.48764795 49.24819003 23.3593327 48.625 27.1875 C47.75875 28.13625 46.8925 29.085 46 30.0625 C45.21625 31.09375 44.4325 32.125 43.625 33.1875 C44.15719091 37.01397392 44.15719091 37.01397392 45.625 40.1875 C46.39585938 40.09210937 47.16671875 39.99671875 47.9609375 39.8984375 C48.96382813 39.78757813 49.96671875 39.67671875 51 39.5625 C51.99773437 39.44648437 52.99546875 39.33046875 54.0234375 39.2109375 C55.31121094 39.19933594 55.31121094 39.19933594 56.625 39.1875 C58.625 41.1875 58.625 41.1875 58.8203125 43.1328125 C58.75520833 45.15104167 58.69010417 47.16927083 58.625 49.1875 C51.875 53.1875 51.875 53.1875 49.625 53.1875 C49.32357084 56.52707308 49.32357084 56.52707308 50.625 60.1875 C53.76624466 62.33419834 57.1287782 63.71860126 60.625 65.1875 C61.625 66.1875 61.625 66.1875 61.9375 68.5625 C61.625 71.1875 61.625 71.1875 59.93359375 72.83984375 C57.17038276 74.4528857 55.54580396 74.50016331 52.375 74.375 C51.03695312 74.33439453 51.03695312 74.33439453 49.671875 74.29296875 C48.65867188 74.24076172 48.65867188 74.24076172 47.625 74.1875 C46.26727523 79.19218651 46.26727523 79.19218651 47.671875 83.87890625 C48.13078125 84.37261719 48.5896875 84.86632812 49.0625 85.375 C51.625 88.1875 51.625 88.1875 52.125 90.875 C51.625 93.1875 51.625 93.1875 50.5625 95.0625 C47.44718966 96.87138988 45.04106334 95.95316937 41.625 95.1875 C38.6875 94.125 38.6875 94.125 36.625 93.1875 C34.28756423 95.05934813 34.28756423 95.05934813 32.625 98.1875 C32.90388336 100.66288814 32.90388336 100.66288814 33.625 103.25 C34.79615308 107.89996282 34.79615308 107.89996282 33.0625 110.8125 C30.12000037 112.47237158 28.93158273 112.99398359 25.625 112.1875 C24.4344974 110.64306419 23.24596021 109.0966476 22.09375 107.5234375 C20.13779112 105.74434724 18.91995587 105.78495645 16.3125 105.8125 C14.4871875 105.998125 14.4871875 105.998125 12.625 106.1875 C12.53412109 107.36119141 12.53412109 107.36119141 12.44140625 108.55859375 C12.35761719 109.57050781 12.27382812 110.58242187 12.1875 111.625 C12.10628906 112.63433594 12.02507812 113.64367187 11.94140625 114.68359375 C11.625 117.1875 11.625 117.1875 10.625 118.1875 C9.10571962 118.25929964 7.58332518 118.27142007 6.0625 118.25 C4.82306641 118.23646484 4.82306641 118.23646484 3.55859375 118.22265625 C2.60146484 118.20525391 2.60146484 118.20525391 1.625 118.1875 C-0.1574918 114.85438525 -0.86292856 111.94269057 -1.375 108.1875 C-4.66243547 107.51826238 -4.66243547 107.51826238 -8.375 108.1875 C-9.82044019 109.97248364 -9.82044019 109.97248364 -10.9375 112.1875 C-12.125 114.38671875 -12.125 114.38671875 -13.375 116.1875 C-16.4375 117 -16.4375 117 -19.375 116.1875 C-21.875 114.3125 -21.875 114.3125 -23.375 111.1875 C-23.10101358 107.73632496 -22.32964293 104.5093994 -21.375 101.1875 C-23.98699184 99.70275421 -23.98699184 99.70275421 -27.375 99.1875 C-29.18485799 100.18031634 -29.18485799 100.18031634 -30.875 101.625 C-34.03145856 104.18089343 -34.03145856 104.18089343 -37.625 104.25 C-40.79841445 103.02390805 -41.92347921 102.26130873 -43.375 99.1875 C-43.375 95.63148113 -42.18183685 93.87141484 -40.3125 90.8125 C-37.375 88.1875 -37.375 88.1875 -33.4375 88.1875 C-29.99543073 88.91248992 -26.66890214 89.9522867 -23.375 91.1875 C-23.375 92.8375 -23.375 94.4875 -23.375 96.1875 C-19.415 96.1875 -15.455 96.1875 -11.375 96.1875 C-11.375 96.5175 -11.375 96.8475 -11.375 97.1875 C-15.83 97.6825 -15.83 97.6825 -20.375 98.1875 C-8.84590483 103.09349794 3.46814535 106.08491382 15.625 101.1875 C28.64159806 95.56773188 37.15252085 89.28220813 43.07421875 75.9921875 C45.124662 70.50960697 45.36047605 65.12207915 45.375 59.3125 C45.37814209 58.36246094 45.38128418 57.41242187 45.38452148 56.43359375 C44.98144882 43.55323258 39.04184639 34.13473336 29.875 25.4375 C19.22066735 16.48952531 7.26595342 15.34431842 -6.04589844 15.96533203 C-14.56438883 16.77789244 -21.03405104 21.33879643 -27.40625 26.68359375 C-29.88671688 28.57839484 -32.39533573 29.33616735 -35.375 30.1875 C-37.61564108 32.0280266 -38.73514703 33.72772055 -40.375 36.1875 C-41.365 35.5275 -42.355 34.8675 -43.375 34.1875 C-42.385 33.6925 -42.385 33.6925 -41.375 33.1875 C-42.220625 32.32125 -43.06625 31.455 -43.9375 30.5625 C-46.11062944 27.97193327 -46.38105296 27.50225395 -46.3125 23.9375 C-45.375 21.1875 -45.375 21.1875 -43.375 19.1875 C-37.83993477 18.41516532 -34.889708 20.29808688 -30.375 23.1875 C-29.055 22.1975 -27.735 21.2075 -26.375 20.1875 C-26.56578125 19.36765625 -26.7565625 18.5478125 -26.953125 17.703125 C-27.17484375 16.62546875 -27.3965625 15.5478125 -27.625 14.4375 C-27.85703125 13.37015625 -28.0890625 12.3028125 -28.328125 11.203125 C-28.375 8.1875 -28.375 8.1875 -26.734375 5.796875 C-24.375 4.1875 -24.375 4.1875 -21.83203125 3.6875 C-18.59463451 4.34630252 -17.88001078 5.48236768 -16.0625 8.1875 C-15.55074219 8.93 -15.03898437 9.6725 -14.51171875 10.4375 C-14.13660156 11.015 -13.76148438 11.5925 -13.375 12.1875 C-9.91 11.6925 -9.91 11.6925 -6.375 11.1875 C-6.24222656 10.47722656 -6.10945313 9.76695313 -5.97265625 9.03515625 C-5.79605469 8.11605469 -5.61945312 7.19695313 -5.4375 6.25 C-5.26347656 5.33347656 -5.08945312 4.41695313 -4.91015625 3.47265625 C-4.06780854 -0.12422995 -3.89832064 0.21657337 0 0 Z " fill="#81521B" transform="translate(62.375,0.8125)"/>
<path d="M0 0 C8.05508511 5.00115719 13.79128652 11.02540671 16.49609375 20.20703125 C18.49223939 29.54036085 17.56147781 38.7170415 12.7109375 47.0234375 C11.27508931 49.19248477 9.80176979 51.31022743 8.24609375 53.39453125 C6.26589632 52.91964227 4.2869574 52.43950266 2.30859375 51.95703125 C1.20644531 51.69019531 0.10429688 51.42335937 -1.03125 51.1484375 C-3.75390625 50.39453125 -3.75390625 50.39453125 -4.75390625 49.39453125 C-6.3624251 49.59083501 -7.96620286 49.82665472 -9.56640625 50.08203125 C-14.40781558 50.64997913 -14.40781558 50.64997913 -17.37890625 48.45703125 C-17.83265625 47.77640625 -18.28640625 47.09578125 -18.75390625 46.39453125 C-16.77390625 45.89953125 -16.77390625 45.89953125 -14.75390625 45.39453125 C-15.74390625 44.73453125 -16.73390625 44.07453125 -17.75390625 43.39453125 C-17.75390625 42.73453125 -17.75390625 42.07453125 -17.75390625 41.39453125 C-19.07390625 41.06453125 -20.39390625 40.73453125 -21.75390625 40.39453125 C-20.50390625 38.83203125 -20.50390625 38.83203125 -18.75390625 37.39453125 C-16.56640625 37.70703125 -16.56640625 37.70703125 -14.75390625 38.39453125 C-14.75390625 37.73453125 -14.75390625 37.07453125 -14.75390625 36.39453125 C-15.68203125 36.20890625 -15.68203125 36.20890625 -16.62890625 36.01953125 C-18.75390625 35.39453125 -18.75390625 35.39453125 -20.75390625 33.39453125 C-21.02382531 30.7061374 -20.84127982 28.10311189 -20.75390625 25.39453125 C-21.74390625 25.06453125 -22.73390625 24.73453125 -23.75390625 24.39453125 C-23.09390625 24.06453125 -22.43390625 23.73453125 -21.75390625 23.39453125 C-21.75390625 22.40453125 -21.75390625 21.41453125 -21.75390625 20.39453125 C-20.76390625 20.06453125 -19.77390625 19.73453125 -18.75390625 19.39453125 C-18.42390625 18.73453125 -18.09390625 18.07453125 -17.75390625 17.39453125 C-16.76390625 17.72453125 -15.77390625 18.05453125 -14.75390625 18.39453125 C-14.25890625 21.36453125 -14.25890625 21.36453125 -13.75390625 24.39453125 C-15.07390625 24.72453125 -16.39390625 25.05453125 -17.75390625 25.39453125 C-17.09390625 26.71453125 -16.43390625 28.03453125 -15.75390625 29.39453125 C-13.77390625 29.39453125 -11.79390625 29.39453125 -9.75390625 29.39453125 C-9.09390625 31.04453125 -8.43390625 32.69453125 -7.75390625 34.39453125 C-4.6099316 33.7870172 -4.6099316 33.7870172 -1.75390625 31.39453125 C0.19164735 24.36543437 -0.51789143 18.86656088 -3.75390625 12.39453125 C-4.56527761 9.08550469 -5.17966905 5.75212992 -5.75390625 2.39453125 C-13.00529626 1.850677 -18.2722188 1.81743579 -24.328125 6.10546875 C-25.88708386 7.3579344 -25.88708386 7.3579344 -26.75390625 9.39453125 C-27.41390625 9.39453125 -28.07390625 9.39453125 -28.75390625 9.39453125 C-29.72708662 18.66604698 -29.71924435 26.95900523 -28.2265625 36.15234375 C-28.07058594 37.22226563 -27.91460937 38.2921875 -27.75390625 39.39453125 C-27.62371094 40.28011719 -27.49351563 41.16570312 -27.359375 42.078125 C-27.75390625 44.39453125 -27.75390625 44.39453125 -30.01953125 46.484375 C-31.004375 47.09410156 -31.98921875 47.70382813 -33.00390625 48.33203125 C-33.9784375 48.95980469 -34.95296875 49.58757812 -35.95703125 50.234375 C-38.75390625 51.39453125 -38.75390625 51.39453125 -40.98046875 50.81640625 C-46.12781678 46.68945761 -48.30143487 38.38450611 -49.01171875 32.12109375 C-49.44979977 22.86298162 -46.34964767 14.36288839 -40.5234375 7.1796875 C-30.13891771 -3.29652783 -13.46882624 -6.42778723 0 0 Z " fill="#FBFBF8" transform="translate(79.75390625,30.60546875)"/>
<path d="M0 0 C0.70157227 0.00161133 1.40314453 0.00322266 2.12597656 0.00488281 C9.35038262 0.17428268 15.20441899 1.90952966 20.875 6.5 C22.25 8.375 22.25 8.375 22.25 10.375 C21.486875 10.00375 20.72375 9.6325 19.9375 9.25 C19.050625 8.96125 18.16375 8.6725 17.25 8.375 C16.26 9.035 15.27 9.695 14.25 10.375 C13.755 8.395 13.755 8.395 13.25 6.375 C12.59 7.365 11.93 8.355 11.25 9.375 C10.755 7.395 10.755 7.395 10.25 5.375 C2.99860999 4.83114575 -2.26831255 4.79790454 -8.32421875 9.0859375 C-9.88317761 10.33840315 -9.88317761 10.33840315 -10.75 12.375 C-11.41 12.375 -12.07 12.375 -12.75 12.375 C-13.72318037 21.64651573 -13.7153381 29.93947398 -12.22265625 39.1328125 C-12.06667969 40.20273438 -11.91070312 41.27265625 -11.75 42.375 C-11.61980469 43.26058594 -11.48960938 44.14617187 -11.35546875 45.05859375 C-11.75 47.375 -11.75 47.375 -14.015625 49.46484375 C-15.00046875 50.07457031 -15.9853125 50.68429688 -17 51.3125 C-17.97453125 51.94027344 -18.9490625 52.56804687 -19.953125 53.21484375 C-22.75 54.375 -22.75 54.375 -24.9765625 53.796875 C-30.12391053 49.66992636 -32.29752862 41.36497486 -33.0078125 35.1015625 C-33.44589352 25.84345037 -30.34574142 17.34335714 -24.51953125 10.16015625 C-17.60338207 3.18293732 -9.78812938 -0.02342779 0 0 Z " fill="#FAFAF6" transform="translate(63.75,27.625)"/>
<path d="M0 0 C-2 1 -2 1 -4 1 C-3.731875 1.825 -3.46375 2.65 -3.1875 3.5 C-2.951193 7.91106393 -4.29409609 9.65672267 -6.7734375 13.16796875 C-10.80635414 19.19165634 -9.73053336 29.0004711 -9 36 C-6.84287252 43.84084512 -2.58687275 50.79617956 4.3125 55.25 C5.199375 55.8275 6.08625 56.405 7 57 C7 57.66 7 58.32 7 59 C4.28335496 58.61190785 3.17483365 58.18625296 1.265625 56.15234375 C-1.44816018 53.57424783 -4.08778923 52.33469035 -7.5 50.8125 C-9.18609375 50.04873047 -9.18609375 50.04873047 -10.90625 49.26953125 C-15.78917774 47.26580459 -19.96414754 46.78010155 -25.25 46.4375 C-26.51328125 46.35371094 -27.7765625 46.26992187 -29.078125 46.18359375 C-30.52445313 46.09271484 -30.52445313 46.09271484 -32 46 C-31.42243232 40.81656058 -30.20243969 36.2033739 -28.3828125 31.30859375 C-28.12498993 30.60025894 -27.86716736 29.89192413 -27.60153198 29.16212463 C-27.05840319 27.67435763 -26.51197557 26.18779112 -25.96240234 24.70239258 C-25.12707667 22.44311671 -24.30297213 20.17998687 -23.48046875 17.91601562 C-22.94857338 16.46330105 -22.41604249 15.01081897 -21.8828125 13.55859375 C-21.63894806 12.88968613 -21.39508362 12.2207785 -21.14382935 11.53160095 C-19.66431543 7.54758516 -17.96677501 3.76655969 -16 0 C-15.34 0 -14.68 0 -14 0 C-13.67 -0.99 -13.34 -1.98 -13 -3 C-7.8052391 -4.94803534 -4.46329399 -2.58051489 0 0 Z " fill="#F3E7C7" transform="translate(40,33)"/>
<path d="M0 0 C1.12736256 2.68937093 1.99679378 4.97893054 2.4375 7.875 C2.85984669 11.10823843 2.85984669 11.10823843 4.625 14.125 C6.85711681 19.05333712 6.55045069 24.90140253 5 30 C2.59390873 31.83541578 1.06236115 33 -2 33 C-2.66 31.35 -3.32 29.7 -4 28 C-4.94875 28.20625 -5.8975 28.4125 -6.875 28.625 C-7.90625 28.74875 -8.9375 28.8725 -10 29 C-10.66 28.34 -11.32 27.68 -12 27 C-12 26.01 -12 25.02 -12 24 C-10.68 23.67 -9.36 23.34 -8 23 C-8.60183749 20.97954558 -9.27306096 18.97888961 -10 17 C-10.66 16.67 -11.32 16.34 -12 16 C-12.33 16.99 -12.66 17.98 -13 19 C-13.99 19 -14.98 19 -16 19 C-16.33 20.32 -16.66 21.64 -17 23 C-16.34 23.33 -15.68 23.66 -15 24 C-15 26.64 -15 29.28 -15 32 C-14.01 32.33 -13.02 32.66 -12 33 C-11.01 33.66 -10.02 34.32 -9 35 C-9 35.66 -9 36.32 -9 37 C-10.485 37.495 -10.485 37.495 -12 38 C-12.639375 38.350625 -13.27875 38.70125 -13.9375 39.0625 C-16 40 -16 40 -20 40 C-20.66 40.66 -21.32 41.32 -22 42 C-22.50682442 38.98017116 -23.00563335 35.95937183 -23.5 32.9375 C-23.71462891 31.66616211 -23.71462891 31.66616211 -23.93359375 30.36914062 C-25.22940978 22.37827508 -25.18832882 15.79592143 -23 8 C-22.34 8 -21.68 8 -21 8 C-20.67 7.01 -20.34 6.02 -20 5 C-14.14580178 -0.69380923 -7.74640321 -0.58098024 0 0 Z " fill="#966E37" transform="translate(74,32)"/>
<path d="M0 0 C1.32 0 2.64 0 4 0 C3.37931666 4.74229454 2.03787849 8.97561223 0.3125 13.41015625 C0.04993408 14.10008163 -0.21263184 14.79000702 -0.4831543 15.50083923 C-1.31683956 17.6901147 -2.15773299 19.87651321 -3 22.0625 C-3.84168006 24.25226614 -4.68164004 26.4426282 -5.5168457 28.63487244 C-6.03490446 29.99425012 -6.55669021 31.35221519 -7.08276367 32.70851135 C-8.38280439 36.11528884 -9.41518918 39.39782334 -10 43 C-9.14019531 42.94199219 -8.28039062 42.88398437 -7.39453125 42.82421875 C3.92318572 42.39224482 13.9994772 44.89432411 23 52 C23.515625 52.598125 24.03125 53.19625 24.5625 53.8125 C25.036875 54.204375 25.51125 54.59625 26 55 C26.825 54.835 27.65 54.67 28.5 54.5 C31 54 31 54 32.8125 55.1875 C34 57 34 57 34 61 C29.71 61 25.42 61 21 61 C21 59.35 21 57.7 21 56 C20.236875 56.04125 19.47375 56.0825 18.6875 56.125 C16 56 16 56 13 54 C12.67 54.66 12.34 55.32 12 56 C12 55.34 12 54.68 12 54 C10.96101563 53.74605469 9.92203125 53.49210937 8.8515625 53.23046875 C1.17232312 51.34013775 -6.45815952 49.393084 -14 47 C-13.39325157 39.94526405 -10.98062159 33.53789408 -8.6875 26.875 C-5.64633138 17.95691079 -2.71966979 9.02193657 0 0 Z " fill="#3C1B09" transform="translate(18,36)"/>
<path d="M0 0 C2.97 0.33 5.94 0.66 9 1 C9 1.66 9 2.32 9 3 C10.32 3.66 11.64 4.32 13 5 C11.02 5.99 11.02 5.99 9 7 C12.44314476 9.29542984 12.745998 9.09786876 16.5625 8.375 C22.49840807 7.59695019 26.7371714 9.39098072 32 12 C30.2958054 15.75856617 28.85139376 17.29822136 25 19 C22.1875 18.6875 22.1875 18.6875 20 18 C20 17.34 20 16.68 20 16 C18.02 16.66 16.04 17.32 14 18 C15.98 18.33 17.96 18.66 20 19 C18.88671875 20.984375 18.88671875 20.984375 17 23 C14.08203125 23.390625 14.08203125 23.390625 10.8125 23.25 C9.72582031 23.21390625 8.63914062 23.1778125 7.51953125 23.140625 C6.68808594 23.09421875 5.85664062 23.0478125 5 23 C4.7525 21.88625 4.505 20.7725 4.25 19.625 C3.4168338 16.00881504 3.4168338 16.00881504 1.1875 14.8125 C0.465625 14.544375 -0.25625 14.27625 -1 14 C-3.48745871 12.10479336 -5.78893853 10.21106147 -8 8 C-7.50628906 7.67386719 -7.01257812 7.34773438 -6.50390625 7.01171875 C-5.86324219 6.57472656 -5.22257812 6.13773437 -4.5625 5.6875 C-3.92441406 5.25824219 -3.28632812 4.82898438 -2.62890625 4.38671875 C-0.7114316 2.9965948 -0.7114316 2.9965948 0 0 Z " fill="#61390B" transform="translate(53,71)"/>
<path d="M0 0 C3.44206927 0.72498992 6.76859786 1.7647867 10.0625 3 C10.0625 4.65 10.0625 6.3 10.0625 8 C14.0225 8 17.9825 8 22.0625 8 C22.0625 8.33 22.0625 8.66 22.0625 9 C17.6075 9.495 17.6075 9.495 13.0625 10 C14.7125 10.66 16.3625 11.32 18.0625 12 C18.0625 12.99 18.0625 13.98 18.0625 15 C20.3725 15.33 22.6825 15.66 25.0625 16 C25.0625 16.66 25.0625 17.32 25.0625 18 C27.0425 18 29.0225 18 31.0625 18 C31.0625 18.33 31.0625 18.66 31.0625 19 C30.175625 19 29.28875 19 28.375 19 C24.51570496 20.1650702 24.38699017 20.692839 22.5625 24.0625 C21.34765625 26.234375 21.34765625 26.234375 20.0625 28 C17 28.8125 17 28.8125 14.0625 28 C11.5625 26.125 11.5625 26.125 10.0625 23 C10.33648642 19.54882496 11.10785707 16.3218994 12.0625 13 C9.45050816 11.51525421 9.45050816 11.51525421 6.0625 11 C4.25264201 11.99281634 4.25264201 11.99281634 2.5625 13.4375 C-0.59395856 15.99339343 -0.59395856 15.99339343 -4.1875 16.0625 C-7.36091445 14.83640805 -8.48597921 14.07380873 -9.9375 11 C-9.9375 7.44398113 -8.74433685 5.68391484 -6.875 2.625 C-3.9375 0 -3.9375 0 0 0 Z " fill="#80501B" transform="translate(28.9375,89)"/>
<path d="M0 0 C0.66 0 1.32 0 2 0 C1.2696922 4.32007945 -0.06357162 8.3642341 -1.50390625 12.48828125 C-1.7466478 13.19147995 -1.98938934 13.89467865 -2.23948669 14.6191864 C-3.01079708 16.8513521 -3.78657766 19.0819338 -4.5625 21.3125 C-5.08818712 22.83127761 -5.61358094 24.35015678 -6.13867188 25.86914062 C-7.42238844 29.58061144 -8.71011469 33.29066879 -10 37 C-9.4119458 37.12334717 -8.8238916 37.24669434 -8.21801758 37.3737793 C6.62775091 40.56532331 6.62775091 40.56532331 11.375 45.4375 C12.179375 46.7059375 12.179375 46.7059375 13 48 C15.92798172 52.00157502 18.87339411 54.28019157 23 57 C23 57.66 23 58.32 23 59 C20.28335496 58.61190785 19.17483365 58.18625296 17.265625 56.15234375 C14.55183982 53.57424783 11.91221077 52.33469035 8.5 50.8125 C6.81390625 50.04873047 6.81390625 50.04873047 5.09375 49.26953125 C0.21082226 47.26580459 -3.96414754 46.78010155 -9.25 46.4375 C-10.51328125 46.35371094 -11.7765625 46.26992187 -13.078125 46.18359375 C-14.52445313 46.09271484 -14.52445313 46.09271484 -16 46 C-15.42243232 40.81656058 -14.20243969 36.2033739 -12.3828125 31.30859375 C-12.12498993 30.60025894 -11.86716736 29.89192413 -11.60153198 29.16212463 C-11.05840319 27.67435763 -10.51197557 26.18779112 -9.96240234 24.70239258 C-9.12707667 22.44311671 -8.30297213 20.17998687 -7.48046875 17.91601562 C-6.94857338 16.46330105 -6.41604249 15.01081897 -5.8828125 13.55859375 C-5.63894806 12.88968613 -5.39508362 12.2207785 -5.14382935 11.53160095 C-3.66431543 7.54758516 -1.96677501 3.76655969 0 0 Z " fill="#CCC0A1" transform="translate(24,33)"/>
<path d="M0 0 C1.12736256 2.68937093 1.99679378 4.97893054 2.4375 7.875 C2.85984669 11.10823843 2.85984669 11.10823843 4.625 14.125 C6.98339252 19.17218785 5.72808209 24.6578073 5 30 C4.67 30 4.34 30 4 30 C4 27.03 4 24.06 4 21 C3.01 21 2.02 21 1 21 C1.5259375 22.175625 1.5259375 22.175625 2.0625 23.375 C2.5265625 24.674375 2.5265625 24.674375 3 26 C2.67 26.66 2.34 27.32 2 28 C1.34 28 0.68 28 0 28 C-0.33 27.34 -0.66 26.68 -1 26 C-1.804375 25.54625 -2.60875 25.0925 -3.4375 24.625 C-6.19652297 22.87537568 -7.00993319 22.06020652 -8 19 C-8.125 16.25 -8.125 16.25 -8 14 C-7.01 14.33 -6.02 14.66 -5 15 C-5 14.01 -5 13.02 -5 12 C-5.99 11.67 -6.98 11.34 -8 11 C-6.35 11 -4.7 11 -3 11 C-3 10.34 -3 9.68 -3 9 C-4.258125 9.33 -5.51625 9.66 -6.8125 10 C-11.25940666 11.16640175 -13.91091358 11.25604768 -18 9 C-17.01 8.67 -16.02 8.34 -15 8 C-15 7.34 -15 6.68 -15 6 C-15.99 6.33 -16.98 6.66 -18 7 C-18.66 6.34 -19.32 5.68 -20 5 C-13.5737569 -0.2922002 -8.13952903 -0.61046468 0 0 Z " fill="#C5913E" transform="translate(74,32)"/>
<path d="M0 0 C0.99 0.33 1.98 0.66 3 1 C3.33 2.98 3.66 4.96 4 7 C2.68 7.33 1.36 7.66 0 8 C0.66 9.32 1.32 10.64 2 12 C3.98 12 5.96 12 8 12 C8.28875 12.804375 8.5775 13.60875 8.875 14.4375 C9.73262568 17.1326468 9.73262568 17.1326468 12 18 C11.484375 18.845625 10.96875 19.69125 10.4375 20.5625 C8.75437344 24.58736786 9.07647145 26.80214298 10 31 C7.8128711 32.32789969 6.52279544 33.04752686 3.9375 32.8125 C1.74244718 31.89199398 0.55133719 30.78403777 -1 29 C0.32 28.67 1.64 28.34 3 28 C2.01 27.34 1.02 26.68 0 26 C0 25.34 0 24.68 0 24 C-1.32 23.67 -2.64 23.34 -4 23 C-2.75 21.4375 -2.75 21.4375 -1 20 C1.1875 20.3125 1.1875 20.3125 3 21 C3 20.34 3 19.68 3 19 C2.38125 18.87625 1.7625 18.7525 1.125 18.625 C-1 18 -1 18 -3 16 C-3.26991906 13.31160615 -3.08737357 10.70858064 -3 8 C-3.99 7.67 -4.98 7.34 -6 7 C-5.34 6.67 -4.68 6.34 -4 6 C-4 5.01 -4 4.02 -4 3 C-3.01 2.67 -2.02 2.34 -1 2 C-0.67 1.34 -0.34 0.68 0 0 Z " fill="#D5A852" transform="translate(62,48)"/>
<path d="M0 0 C0.66 0 1.32 0 2 0 C3.98 5.28 5.96 10.56 8 16 C8.33 16 8.66 16 9 16 C9 19.96 9 23.92 9 28 C8.34 28.33 7.68 28.66 7 29 C6.34444881 31.52733235 6.34444881 31.52733235 6 34 C5.34 34 4.68 34 4 34 C4 32.68 4 31.36 4 30 C3.34 30 2.68 30 2 30 C2.33 31.65 2.66 33.3 3 35 C2.01 35 1.02 35 0 35 C-1.35718362 30.18907794 -1.04787312 25.41387435 -0.9609375 20.46289062 C-0.91187103 15.85473169 -1.23128839 11.54620849 -2 7 C-1.34 6.67 -0.68 6.34 0 6 C0 4.02 0 2.04 0 0 Z " fill="#FAFCF9" transform="translate(99,41)"/>
<path d="M0 0 C0.72445312 0.73347656 1.44890625 1.46695313 2.1953125 2.22265625 C3.08863281 3.10244141 3.08863281 3.10244141 4 4 C5.67542976 3.71395102 7.34385343 3.38218767 9 3 C10.8125 4.1875 10.8125 4.1875 12 6 C12 7.32 12 8.64 12 10 C7.71 10 3.42 10 -1 10 C-1 8.35 -1 6.7 -1 5 C-2.65 5 -4.3 5 -6 5 C-6 3.68 -6 2.36 -6 1 C-7.65 1.33 -9.3 1.66 -11 2 C-11.33 1.01 -11.66 0.02 -12 -1 C-12.639375 -0.773125 -13.27875 -0.54625 -13.9375 -0.3125 C-18.37520291 0.14032683 -21.89513141 -1.41707682 -26 -3 C-26 -3.66 -26 -4.32 -26 -5 C-26.99 -5.66 -27.98 -6.32 -29 -7 C-18.00254469 -8.99953733 -9.4909133 -5.74124712 0 0 Z " fill="#4D2703" transform="translate(40,87)"/>
<path d="M0 0 C0.33 0 0.66 0 1 0 C1.33 2.64 1.66 5.28 2 8 C2.66 8.0825 3.32 8.165 4 8.25 C8.0408127 9.26020317 12.98769751 10.98769751 16 14 C16.3125 16.375 16.3125 16.375 16 19 C13.80597774 21.143352 12.49122201 21.94417932 9.421875 22.29296875 C8.54015625 22.25816406 7.6584375 22.22335938 6.75 22.1875 C5.85796875 22.16042969 4.9659375 22.13335937 4.046875 22.10546875 C3.37140625 22.07066406 2.6959375 22.03585938 2 22 C1.67 22.66 1.34 23.32 1 24 C-1.65350475 19.10823362 -1.02440164 14.54347593 -0.625 9.1875 C-0.56828125 8.30384766 -0.5115625 7.42019531 -0.453125 6.50976562 C-0.31232863 4.3391549 -0.1575466 2.16945929 0 0 Z " fill="#83541F" transform="translate(108,53)"/>
<path d="M0 0 C5.18038883 2.64294146 9.14995676 5.46840714 13.12280273 9.73608398 C12.79280273 10.39608398 12.46280273 11.05608398 12.12280273 11.73608398 C11.66131836 11.27717773 11.19983398 10.81827148 10.72436523 10.34545898 C2.59715874 2.70010268 -4.91710962 0.11995374 -16.04516602 0.26318359 C-21.78625875 0.51490213 -26.0681657 1.64868572 -30.87719727 4.73608398 C-31.58360352 5.16018555 -32.29000977 5.58428711 -33.01782227 6.02124023 C-39.57612115 10.3812945 -42.43514619 15.95928355 -45.18969727 23.17358398 C-47.13529926 33.25533979 -45.80063646 42.79631629 -40.05297852 51.49780273 C-38.39073201 53.64557357 -36.69246335 55.71685542 -34.87719727 57.73608398 C-37.87719727 57.73608398 -37.87719727 57.73608398 -39.34204102 56.55639648 C-47.14195658 47.57718334 -48.79459289 38.65300664 -48.32641602 27.02905273 C-47.89340896 21.45332879 -46.14824619 17.25655213 -42.87719727 12.73608398 C-42.4427832 12.09541992 -42.00836914 11.45475586 -41.56079102 10.79467773 C-32.10313886 -1.68080075 -14.23866814 -6.56929136 0 0 Z " fill="#654322" transform="translate(77.877197265625,28.263916015625)"/>
<path d="M0 0 C1.98 0 3.96 0 6 0 C6 0.66 6 1.32 6 2 C5.01 2.495 5.01 2.495 4 3 C7 4.33333333 7 4.33333333 10 3 C10 3.66 10 4.32 10 5 C10.763125 4.67 11.52625 4.34 12.3125 4 C15 3 15 3 18 3 C18 3.66 18 4.32 18 5 C17.01 5.495 17.01 5.495 16 6 C16 6.99 16 7.98 16 9 C15.34 9 14.68 9 14 9 C14.55350771 12.32104626 15.14091219 15.16244492 17 18 C19.0335948 19.26804566 19.0335948 19.26804566 21 20 C21 20.66 21 21.32 21 22 C21.66 22 22.32 22 23 22 C22.67 19.69 22.34 17.38 22 15 C22.99 15 23.98 15 25 15 C25 18.3 25 21.6 25 25 C23.02 25.66 21.04 26.32 19 27 C18.34 25.35 17.68 23.7 17 22 C16.05125 22.20625 15.1025 22.4125 14.125 22.625 C13.09375 22.74875 12.0625 22.8725 11 23 C10.34 22.34 9.68 21.68 9 21 C9 20.01 9 19.02 9 18 C10.32 17.67 11.64 17.34 13 17 C12.67 16.01 12.34 15.02 12 14 C11.96045766 11.66700175 11.95598268 9.33291811 12 7 C10.02 7.33 8.04 7.66 6 8 C6 7.34 6 6.68 6 6 C3.69 6.33 1.38 6.66 -1 7 C-1 6.34 -1 5.68 -1 5 C-0.34 4.67 0.32 4.34 1 4 C0.01 3.34 -0.98 2.68 -2 2 C-1.34 2 -0.68 2 0 2 C0 1.34 0 0.68 0 0 Z " fill="#B7751C" transform="translate(53,38)"/>
<path d="M0 0 C0.66 1.98 1.32 3.96 2 6 C1.34 6 0.68 6 0 6 C0 7.32 0 8.64 0 10 C-0.99 10.33 -1.98 10.66 -3 11 C-3 10.34 -3 9.68 -3 9 C-4.258125 9.33 -5.51625 9.66 -6.8125 10 C-11.25940666 11.16640175 -13.91091358 11.25604768 -18 9 C-17.01 8.67 -16.02 8.34 -15 8 C-15 7.34 -15 6.68 -15 6 C-15.99 6.33 -16.98 6.66 -18 7 C-18.66 6.34 -19.32 5.68 -20 5 C-13.5737569 -0.2922002 -8.13952903 -0.61046468 0 0 Z " fill="#E8C072" transform="translate(74,32)"/>
<path d="M0 0 C3.89005129 0.22228864 4.98755638 0.98755638 7.8125 3.8125 C10 7 10 7 10 11 C8.03470311 13.26183577 5.69786305 14.72149462 3 16 C-0.68210566 16.07080972 -2.20894046 15.71450539 -4.9375 13.25 C-6 11 -6 11 -6 8.625 C-4.63226228 5.03468848 -2.57811024 2.8425318 0 0 Z " fill="#7D521B" transform="translate(25,89)"/>
<path d="M0 0 C3.625 0.1875 3.625 0.1875 6.625 2.1875 C7.03916399 4.76839562 7.06415839 7.263565 7.12109375 9.875 C7.28738281 10.638125 7.45367187 11.40125 7.625 12.1875 C8.945 12.8475 10.265 13.5075 11.625 14.1875 C4.365 13.8575 -2.895 13.5275 -10.375 13.1875 C-9.055 12.5275 -7.735 11.8675 -6.375 11.1875 C-5.49510857 8.81536063 -5.49510857 8.81536063 -5.1875 6.125 C-4.28375472 0.23798637 -4.28375472 0.23798637 0 0 Z " fill="#825117" transform="translate(62.375,0.8125)"/>
<path d="M0 0 C0.66 0 1.32 0 2 0 C1.2696922 4.32007945 -0.06357162 8.3642341 -1.50390625 12.48828125 C-1.7466478 13.19147995 -1.98938934 13.89467865 -2.23948669 14.6191864 C-3.01079708 16.8513521 -3.78657766 19.0819338 -4.5625 21.3125 C-5.08818712 22.83127761 -5.61358094 24.35015678 -6.13867188 25.86914062 C-7.42238844 29.58061144 -8.71011469 33.29066879 -10 37 C-9.12226929 37.17958252 -9.12226929 37.17958252 -8.22680664 37.36279297 C-3.7896348 38.30350072 0.36932363 39.35323534 4.5625 41.125 C5.40941406 41.47820312 6.25632812 41.83140625 7.12890625 42.1953125 C8.05509766 42.59363281 8.05509766 42.59363281 9 43 C9 43.99 9 44.98 9 46 C7.96875 45.38125 6.9375 44.7625 5.875 44.125 C-0.03616008 41.11607014 -6.48557784 40.69535967 -13 40 C-14.63152924 35.96115312 -13.26916831 33.202858 -11.796875 29.2578125 C-11.55841858 28.61182098 -11.31996216 27.96582947 -11.07427979 27.30026245 C-10.56810247 25.93509947 -10.05672323 24.57185556 -9.54052734 23.21044922 C-8.75680752 21.14295857 -7.98834966 19.07031923 -7.22265625 16.99609375 C-5.05906045 11.18625675 -2.85952195 5.51209099 0 0 Z " fill="#C5B996" transform="translate(24,33)"/>
<path d="M0 0 C2.20009864 3.30014795 2.62319003 4.1718327 2 8 C0.49843252 10.2183436 -1.16458561 12.02692953 -3 14 C-7.32001266 13.51999859 -9.27322191 12.38496591 -12 9 C-13.25 6.25 -13.25 6.25 -14 4 C-12.61518672 3.12808053 -11.21654754 2.27809616 -9.8125 1.4375 C-8.64654297 0.72400391 -8.64654297 0.72400391 -7.45703125 -0.00390625 C-4.45715247 -1.22007332 -3.02312612 -1.09239011 0 0 Z " fill="#7C4F1D" transform="translate(109,20)"/>
<path d="M0 0 C9.02684732 5.89508396 9.02684732 5.89508396 10.4375 10.8125 C10.64375 11.864375 10.85 12.91625 11.0625 14 C15.3525 14 19.6425 14 24.0625 14 C24.0625 14.33 24.0625 14.66 24.0625 15 C9.3737267 15.55006502 9.3737267 15.55006502 3.0625 12 C2.03125 11.5875 1 11.175 -0.0625 10.75 C-3.90863908 8.40887186 -5.51646793 5.77396175 -7.9375 2 C-3.79298814 -1.29123001 -3.79298814 -1.29123001 0 0 Z " fill="#6D3F14" transform="translate(46.9375,80)"/>
<path d="M0 0 C4.02648325 0.46459422 6.12618365 1.84619629 9.25 4.375 C9.25 5.035 9.25 5.695 9.25 6.375 C9.91 6.705 10.57 7.035 11.25 7.375 C7.785 8.86 7.785 8.86 4.25 10.375 C4.25 11.365 4.25 12.355 4.25 13.375 C3.26 13.87 3.26 13.87 2.25 14.375 C1.26 15.86 1.26 15.86 0.25 17.375 C-0.74 16.715 -1.73 16.055 -2.75 15.375 C-2.09 15.045 -1.43 14.715 -0.75 14.375 C-2.0184375 13.075625 -2.0184375 13.075625 -3.3125 11.75 C-5.48562944 9.15943327 -5.75605296 8.68975395 -5.6875 5.125 C-4.46940359 1.55191719 -3.79591646 0.51762497 0 0 Z " fill="#84511C" transform="translate(21.75,19.625)"/>
<path d="M0 0 C3.63 0 7.26 0 11 0 C11.36103536 1.81114432 11.71365504 3.62396823 12.0625 5.4375 C12.25972656 6.44683594 12.45695312 7.45617187 12.66015625 8.49609375 C12.77230469 9.32238281 12.88445312 10.14867188 13 11 C12 12 12 12 9.93359375 12.09765625 C9.10988281 12.08605469 8.28617188 12.07445313 7.4375 12.0625 C6.61121094 12.05347656 5.78492187 12.04445313 4.93359375 12.03515625 C4.29550781 12.02355469 3.65742187 12.01195313 3 12 C0.7655402 7.96707255 0.45503257 4.55032566 0 0 Z " fill="#83521C" transform="translate(61,107)"/>
<path d="M0 0 C0.99 0.33 1.98 0.66 3 1 C3.33 2.98 3.66 4.96 4 7 C2.68 7.33 1.36 7.66 0 8 C0.66 9.32 1.32 10.64 2 12 C3.98 12 5.96 12 8 12 C7.625 13.9375 7.625 13.9375 7 16 C6.34 16.33 5.68 16.66 5 17 C5.33 18.65 5.66 20.3 6 22 C5.01 21.67 4.02 21.34 3 21 C3 20.34 3 19.68 3 19 C2.38125 18.87625 1.7625 18.7525 1.125 18.625 C-1 18 -1 18 -3 16 C-3.26991906 13.31160615 -3.08737357 10.70858064 -3 8 C-3.99 7.67 -4.98 7.34 -6 7 C-5.34 6.67 -4.68 6.34 -4 6 C-4 5.01 -4 4.02 -4 3 C-3.01 2.67 -2.02 2.34 -1 2 C-0.67 1.34 -0.34 0.68 0 0 Z " fill="#E8BF68" transform="translate(62,48)"/>
<path d="M0 0 C1.32 0 2.64 0 4 0 C3.02858589 6.97568474 0.51167907 13.24128041 -1.9375 19.8125 C-2.39811044 21.07735603 -2.85839992 22.34232898 -3.31835938 23.60742188 C-3.75857422 24.79529297 -4.19878906 25.98316406 -4.65234375 27.20703125 C-5.05445068 28.2947583 -5.45655762 29.38248535 -5.87084961 30.50317383 C-7 33 -7 33 -9 34 C-8.47875863 26.19792687 -6.40804775 19.33207557 -3.9375 11.9375 C-3.37192383 10.20983398 -3.37192383 10.20983398 -2.79492188 8.44726562 C-1.87104288 5.62884995 -0.93926223 2.81331858 0 0 Z " fill="#2B120C" transform="translate(18,36)"/>
<path d="M0 0 C6.875 3.625 6.875 3.625 8 7 C10.00016466 8.20882096 10.00016466 8.20882096 12 9 C12 8.34 12 7.68 12 7 C12.66 7 13.32 7 14 7 C14 9.97 14 12.94 14 16 C8.25 14.125 8.25 14.125 6 13 C6 12.34 6 11.68 6 11 C6.66 11 7.32 11 8 11 C8 10.34 8 9.68 8 9 C6.9275 9.20625 5.855 9.4125 4.75 9.625 C1.12380904 9.9876191 -0.08291076 9.98362069 -3 8 C-3 7.34 -3 6.68 -3 6 C-2.34 6 -1.68 6 -1 6 C-0.67 4.02 -0.34 2.04 0 0 Z " fill="#74593B" transform="translate(19,109)"/>
<path d="M0 0 C1.32 0.33 2.64 0.66 4 1 C3.01 1.33 2.02 1.66 1 2 C1 2.66 1 3.32 1 4 C4.465 3.505 4.465 3.505 8 3 C8 3.66 8 4.32 8 5 C9.98 4.67 11.96 4.34 14 4 C13.67 5.32 13.34 6.64 13 8 C12.34 7.67 11.68 7.34 11 7 C11 7.66 11 8.32 11 9 C10.071875 8.938125 9.14375 8.87625 8.1875 8.8125 C5.05870011 8.70977955 5.05870011 8.70977955 3.1875 10.3125 C1.80544154 12.10476225 1.80544154 12.10476225 1 15 C0.01 14.67 -0.98 14.34 -2 14 C-2.21192221 8.80790596 -1.5912689 4.873261 0 0 Z " fill="#4F2B12" transform="translate(51,41)"/>
<path d="M0 0 C1.9375 1.125 1.9375 1.125 4 3 C4.75 6.1875 4.75 6.1875 5 9 C6.98 9 8.96 9 11 9 C11 9.33 11 9.66 11 10 C13.31 10.33 15.62 10.66 18 11 C18 11.33 18 11.66 18 12 C7.55622346 12.71424004 -0.5523902 11.56473094 -10 7 C-10.33 6.34 -10.66 5.68 -11 5 C-7.7 4.67 -4.4 4.34 -1 4 C-0.67 2.68 -0.34 1.36 0 0 Z " fill="#EDEAE1" transform="translate(52,93)"/>
<path d="M0 0 C1.98828125 0.46875 1.98828125 0.46875 3.98828125 3.46875 C2.66828125 3.79875 1.34828125 4.12875 -0.01171875 4.46875 C0.97828125 5.12875 1.96828125 5.78875 2.98828125 6.46875 C2.98828125 7.12875 2.98828125 7.78875 2.98828125 8.46875 C1.33828125 8.13875 -0.31171875 7.80875 -2.01171875 7.46875 C-2.01171875 8.78875 -2.01171875 10.10875 -2.01171875 11.46875 C-3.00171875 11.96375 -3.00171875 11.96375 -4.01171875 12.46875 C-4.44484375 11.80875 -4.87796875 11.14875 -5.32421875 10.46875 C-6.15953125 9.47875 -6.15953125 9.47875 -7.01171875 8.46875 C-8.00171875 8.46875 -8.99171875 8.46875 -10.01171875 8.46875 C-10.67171875 7.47875 -11.33171875 6.48875 -12.01171875 5.46875 C-8.29242609 0.6696627 -5.77296401 -0.07761968 0 0 Z " fill="#421C03" transform="translate(62.01171875,73.53125)"/>
<path d="M0 0 C0.33 0.66 0.66 1.32 1 2 C1.90878906 1.93039063 1.90878906 1.93039063 2.8359375 1.859375 C12.06271266 1.46191392 19.71557103 4.27652009 27 10 C28.33333333 11.66666667 29.66666667 13.33333333 31 15 C32.99408077 16.34216975 34.99301025 17.6772113 37 19 C37 19.66 37 20.32 37 21 C32.82302111 20.50635704 31.21245144 18.30602862 28.5 15.25 C20.07306367 6.61300808 10.83169234 4.23075996 -1 4 C-0.67 2.68 -0.34 1.36 0 0 Z " fill="#F8F5DA" transform="translate(10,71)"/>
<path d="M0 0 C2.64 0.66 5.28 1.32 8 2 C8 3.65 8 5.3 8 7 C11.96 7 15.92 7 20 7 C20 7.33 20 7.66 20 8 C15.545 8.495 15.545 8.495 11 9 C11.99 9.33 12.98 9.66 14 10 C14 10.66 14 11.32 14 12 C13.34 12 12.68 12 12 12 C11.67 13.65 11.34 15.3 11 17 C10.67 17 10.34 17 10 17 C10 15.35 10 13.7 10 12 C9.21625 11.71125 8.4325 11.4225 7.625 11.125 C3.89629457 9.52698339 2.59110341 7.60650106 1 4 C0.67 2.68 0.34 1.36 0 0 Z " fill="#764C21" transform="translate(31,90)"/>
<path d="M0 0 C1.2684375 0.433125 1.2684375 0.433125 2.5625 0.875 C5.96633178 2.08811368 5.96633178 2.08811368 9.5 2.5625 C13.99359674 4.40808438 15.21413205 6.77206151 17.54296875 10.90625 C19.18444681 13.26504957 20.44427691 13.81176802 23 15 C25.15229884 18.22844826 25.60309873 20.18974777 26 24 C25.67 24.99 25.34 25.98 25 27 C24.5875 26.2265625 24.175 25.453125 23.75 24.65625 C18.0508287 14.37738748 12.21352984 7.82585158 1.90625 2.12890625 C1.2771875 1.75636719 0.648125 1.38382813 0 1 C0 0.67 0 0.34 0 0 Z " fill="#714213" transform="translate(81,18)"/>
<path d="M0 0 C2.51303805 0.43328242 3.71516561 0.6780133 5.4375 2.625 C5.953125 3.07875 6.46875 3.5325 7 4 C7.825 3.835 8.65 3.67 9.5 3.5 C12 3 12 3 13.8125 4.1875 C15 6 15 6 15 10 C10.71 10 6.42 10 2 10 C1.67 8.02 1.34 6.04 1 4 C1.99 4 2.98 4 4 4 C2.68 2.68 1.36 1.36 0 0 Z " fill="#330F02" transform="translate(37,87)"/>
<path d="M0 0 C5.75762166 1.08896667 11.39247819 2.29336293 17 4 C17.33 5.98 17.66 7.96 18 10 C17.34 10 16.68 10 16 10 C15.67 8.68 15.34 7.36 15 6 C14.67 6.99 14.34 7.98 14 9 C11.69 8.67 9.38 8.34 7 8 C6.67 6.68 6.34 5.36 6 4 C5.34 4 4.68 4 4 4 C4 4.66 4 5.32 4 6 C3.01 5.67 2.02 5.34 1 5 C0.67 3.35 0.34 1.7 0 0 Z " fill="#7C6347" transform="translate(33,120)"/>
<path d="M0 0 C0.391875 0.495 0.78375 0.99 1.1875 1.5 C2.94032238 3.23551297 2.94032238 3.23551297 5.5625 3.25 C8.00546594 3.14460969 8.00546594 3.14460969 10 2 C9.67 3.32 9.34 4.64 9 6 C8.34 6 7.68 6 7 6 C6.67 8.64 6.34 11.28 6 14 C5.71125 13.360625 5.4225 12.72125 5.125 12.0625 C4.17176549 9.84793921 4.17176549 9.84793921 2 9 C2 8.34 2 7.68 2 7 C1.34 7.66 0.68 8.32 0 9 C-0.33 7.68 -0.66 6.36 -1 5 C-1.66 5 -2.32 5 -3 5 C-3.66 6.65 -4.32 8.3 -5 10 C-5.99 10 -6.98 10 -8 10 C-6.5682479 4.98886765 -4.01554307 3.05530451 0 0 Z " fill="#F2F4EF" transform="translate(44,34)"/>
<path d="M0 0 C-1.32 0.33 -2.64 0.66 -4 1 C-3.67 2.32 -3.34 3.64 -3 5 C-3.66 5 -4.32 5 -5 5 C-5 6.65 -5 8.3 -5 10 C-5.99 9.67 -6.98 9.34 -8 9 C-9.0209375 9.2784375 -9.0209375 9.2784375 -10.0625 9.5625 C-11.0215625 9.7790625 -11.0215625 9.7790625 -12 10 C-12.66 9.34 -13.32 8.68 -14 8 C-13.01 7.67 -12.02 7.34 -11 7 C-11 6.34 -11 5.68 -11 5 C-11.99 5.33 -12.98 5.66 -14 6 C-14.66 5.34 -15.32 4.68 -16 4 C-10.19248253 -0.1297902 -6.85861612 0 0 0 Z " fill="#CC9A4A" transform="translate(70,33)"/>
<path d="M0 0 C2.97 0.33 5.94 0.66 9 1 C9 1.66 9 2.32 9 3 C7.39125 3.0928125 7.39125 3.0928125 5.75 3.1875 C1.86468039 3.66145959 1.86468039 3.66145959 -0.4375 6.5625 C-0.953125 7.366875 -1.46875 8.17125 -2 9 C-1.030625 9.70125 -0.06125 10.4025 0.9375 11.125 C3.55157225 13.27161462 3.96258406 13.85835394 4.875 17.3125 C4.936875 18.6428125 4.936875 18.6428125 5 20 C4.7525 19.38125 4.505 18.7625 4.25 18.125 C2.74122612 15.5600844 1.66712781 15.21925843 -1 14 C-3.48745871 12.10479336 -5.78893853 10.21106147 -8 8 C-7.50628906 7.67386719 -7.01257812 7.34773438 -6.50390625 7.01171875 C-5.86324219 6.57472656 -5.22257812 6.13773437 -4.5625 5.6875 C-3.92441406 5.25824219 -3.28632812 4.82898438 -2.62890625 4.38671875 C-0.7114316 2.9965948 -0.7114316 2.9965948 0 0 Z " fill="#522A09" transform="translate(53,71)"/>
<path d="M0 0 C1.98 0 3.96 0 6 0 C6 0.66 6 1.32 6 2 C5.01 2.495 5.01 2.495 4 3 C7 4.33333333 7 4.33333333 10 3 C10 3.66 10 4.32 10 5 C10.763125 4.67 11.52625 4.34 12.3125 4 C15 3 15 3 18 3 C18 3.66 18 4.32 18 5 C17.01 5.495 17.01 5.495 16 6 C16 6.99 16 7.98 16 9 C15.34 9 14.68 9 14 9 C13.34 9.66 12.68 10.32 12 11 C12 9.68 12 8.36 12 7 C10.02 7.33 8.04 7.66 6 8 C6 7.34 6 6.68 6 6 C3.69 6.33 1.38 6.66 -1 7 C-1 6.34 -1 5.68 -1 5 C-0.34 4.67 0.32 4.34 1 4 C0.01 3.34 -0.98 2.68 -2 2 C-1.34 2 -0.68 2 0 2 C0 1.34 0 0.68 0 0 Z " fill="#A87425" transform="translate(53,38)"/>
<path d="M0 0 C0.99 0 1.98 0 3 0 C3 1.32 3 2.64 3 4 C6.3 4 9.6 4 13 4 C11.94124926 7.40312738 10.99097846 10.01353231 9 13 C8.34 13 7.68 13 7 13 C7.33 11.02 7.66 9.04 8 7 C7.401875 7.515625 6.80375 8.03125 6.1875 8.5625 C5.465625 9.036875 4.74375 9.51125 4 10 C3.01 9.67 2.02 9.34 1 9 C0.67 6.03 0.34 3.06 0 0 Z " fill="#745A3B" transform="translate(53,121)"/>
<path d="M0 0 C0.52464844 0.13277344 1.04929688 0.26554687 1.58984375 0.40234375 C9.9889956 2.31695906 18.42390121 2.62193532 27 3 C27.89445704 7.07787895 28.08196118 10.81998005 28 15 C25.89293709 11.57602277 25.91319287 8.96057533 26 5 C24.80503906 5.12568359 24.80503906 5.12568359 23.5859375 5.25390625 C13.06151142 6.26537786 13.06151142 6.26537786 8 5 C8 4.34 8 3.68 8 3 C5.36 3 2.72 3 0 3 C0 2.01 0 1.02 0 0 Z " fill="#723F0B" transform="translate(46,102)"/>
<path d="M0 0 C0.99 0.33 1.98 0.66 3 1 C3 3.64 3 6.28 3 9 C-3.75 13 -3.75 13 -6 13 C-6 15.31 -6 17.62 -6 20 C-6.66 20 -7.32 20 -8 20 C-8 22.31 -8 24.62 -8 27 C-8.33 27 -8.66 27 -9 27 C-9.02690844 24.37493198 -9.04679404 21.75013827 -9.0625 19.125 C-9.07087891 18.37863281 -9.07925781 17.63226563 -9.08789062 16.86328125 C-9.11328125 11.2265625 -9.11328125 11.2265625 -8 9 C-5.93359375 8.5859375 -5.93359375 8.5859375 -3.4375 8.375 C-2.19806641 8.26285156 -2.19806641 8.26285156 -0.93359375 8.1484375 C0.02353516 8.07496094 0.02353516 8.07496094 1 8 C1.20970559 3.85906302 1.20970559 3.85906302 0 0 Z " fill="#734313" transform="translate(118,41)"/>
<path d="M0 0 C1.98 0 3.96 0 6 0 C6.66 2.64 7.32 5.28 8 8 C7.01 8.495 7.01 8.495 6 9 C5.34 8.67 4.68 8.34 4 8 C3.67 8.66 3.34 9.32 3 10 C-0.63 9.34 -4.26 8.68 -8 8 C-8 7.67 -8 7.34 -8 7 C-7.071875 6.896875 -6.14375 6.79375 -5.1875 6.6875 C-1.89063819 5.97641216 -1.07655163 5.49186196 1 3 C1.66 2.67 2.32 2.34 3 2 C2.01 1.34 1.02 0.68 0 0 Z " fill="#FBFCFA" transform="translate(69,17)"/>
<path d="M0 0 C1.67316284 0.0314209 1.67316284 0.0314209 3.38012695 0.06347656 C4.58862305 0.07636719 5.79711914 0.08925781 7.04223633 0.10253906 C8.30487305 0.13605469 9.56750977 0.16957031 10.8684082 0.20410156 C12.14264648 0.22214844 13.41688477 0.24019531 14.72973633 0.25878906 C17.88087662 0.30599716 21.03051961 0.37183772 24.1809082 0.45410156 C24.8409082 1.77410156 25.5009082 3.09410156 26.1809082 4.45410156 C25.22313477 4.29167969 24.26536133 4.12925781 23.27856445 3.96191406 C18.7226437 3.31319679 14.21288019 3.30744655 9.6184082 3.32910156 C8.381875 3.32330078 8.381875 3.32330078 7.12036133 3.31738281 C2.69390163 3.32445949 -1.46195987 3.56431449 -5.8190918 4.45410156 C-4.14503987 1.48143792 -3.44429981 0.55481057 0 0 Z " fill="#74420B" transform="translate(53.819091796875,13.5458984375)"/>
<path d="M0 0 C2.97 0.495 2.97 0.495 6 1 C6 3.64 6 6.28 6 9 C6.99 9.33 7.98 9.66 9 10 C9.99 10.66 10.98 11.32 12 12 C12 12.66 12 13.32 12 14 C7.545 14.495 7.545 14.495 3 15 C2.67 13.68 2.34 12.36 2 11 C2.66 10.01 3.32 9.02 4 8 C4.16713569 5.37468476 4.16713569 5.37468476 4 3 C3.34 2.67 2.68 2.34 2 2 C2 2.99 2 3.98 2 5 C1.34 5 0.68 5 0 5 C0 3.35 0 1.7 0 0 Z " fill="#91622B" transform="translate(53,55)"/>
<path d="M0 0 C3.68350362 3.92114902 4.7318186 6.63637191 5 12 C4.78801658 15.02076378 4.4414938 18.00463435 4 21 C3.67 21 3.34 21 3 21 C3 18.03 3 15.06 3 12 C1.68 11.67 0.36 11.34 -1 11 C-1.66 10.67 -2.32 10.34 -3 10 C-3.33 10.66 -3.66 11.32 -4 12 C-4 10.35 -4 8.7 -4 7 C-2.68 7.33 -1.36 7.66 0 8 C-0.99 7.34 -1.98 6.68 -3 6 C-3 5.34 -3 4.68 -3 4 C-2.01 4 -1.02 4 0 4 C0 2.68 0 1.36 0 0 Z " fill="#CE9C49" transform="translate(75,41)"/>
<path d="M0 0 C1.859375 0.21484375 1.859375 0.21484375 4 1 C7.5603888 6.63728227 8.48360262 12.47136468 8 19 C7.34 19.33 6.68 19.66 6 20 C5.73445313 19.19175781 5.46890625 18.38351563 5.1953125 17.55078125 C4.84210938 16.48214844 4.48890625 15.41351563 4.125 14.3125 C3.77695313 13.25675781 3.42890625 12.20101562 3.0703125 11.11328125 C2.39588449 9.15153262 1.6679901 7.20661083 0.8671875 5.29296875 C0 3 0 3 0 0 Z " fill="#F4F7ED" transform="translate(100,38)"/>
<path d="M0 0 C0.66 0 1.32 0 2 0 C2 0.66 2 1.32 2 2 C3.65 2.33 5.3 2.66 7 3 C5 5 5 5 2.1875 5.75 C-1.0423491 7.01660749 -1.61697257 7.502232 -3.5625 10.125 C-6 13 -6 13 -8.8125 13.375 C-9.534375 13.25125 -10.25625 13.1275 -11 13 C-10.62488281 12.56429687 -10.24976562 12.12859375 -9.86328125 11.6796875 C-9.35152344 11.08414063 -8.83976562 10.48859375 -8.3125 9.875 C-7.76722656 9.24207031 -7.22195312 8.60914062 -6.66015625 7.95703125 C-5.1557467 6.18359787 -3.70207646 4.37867921 -2.25 2.5625 C-1.5075 1.716875 -0.765 0.87125 0 0 Z " fill="#80511A" transform="translate(102,84)"/>
<path d="M0 0 C0.99 0 1.98 0 3 0 C3 1.32 3 2.64 3 4 C4.98 3.67 6.96 3.34 9 3 C9 3.66 9 4.32 9 5 C8.34 5 7.68 5 7 5 C7 5.66 7 6.32 7 7 C8.32 6.67 9.64 6.34 11 6 C11.33 4.68 11.66 3.36 12 2 C12.66 2 13.32 2 14 2 C14.33 3.65 14.66 5.3 15 7 C11.86501708 8.85776765 9.62528568 9.20140476 6 9 C6 8.01 6 7.02 6 6 C5.34 6 4.68 6 4 6 C4.33 7.32 4.66 8.64 5 10 C3.68 10 2.36 10 1 10 C1.33 7.36 1.66 4.72 2 2 C1.34 2 0.68 2 0 2 C0 1.34 0 0.68 0 0 Z " fill="#6D5132" transform="translate(67,121)"/>
<path d="M0 0 C2.97 0.33 5.94 0.66 9 1 C9 2.32 9 3.64 9 5 C3.88888889 9 3.88888889 9 1 9 C-0.6875 6.625 -0.6875 6.625 -2 4 C-1.67 3.34 -1.34 2.68 -1 2 C-0.01 2.99 0.98 3.98 2 5 C1.34 3.35 0.68 1.7 0 0 Z " fill="#441C06" transform="translate(75,81)"/>
<path d="M0 0 C0.66 0 1.32 0 2 0 C1.46199791 4.98599117 -0.11744529 8.51835705 -2.5625 12.875 C-3.20316406 14.02742188 -3.84382813 15.17984375 -4.50390625 16.3671875 C-4.99761719 17.23601562 -5.49132812 18.10484375 -6 19 C-6.99 19 -7.98 19 -9 19 C-9 18.34 -9 17.68 -9 17 C-8.34 17 -7.68 17 -7 17 C-7 16.01 -7 15.02 -7 14 C-6.34 14 -5.68 14 -5 14 C-5 10.04 -5 6.08 -5 2 C-4.34 2 -3.68 2 -3 2 C-3 3.32 -3 4.64 -3 6 C-2.34 6 -1.68 6 -1 6 C-1.020625 5.195625 -1.04125 4.39125 -1.0625 3.5625 C-1 1 -1 1 0 0 Z " fill="#F4EFE6" transform="translate(106,69)"/>
<path d="M0 0 C0.66 0.33 1.32 0.66 2 1 C1.38125 1.391875 0.7625 1.78375 0.125 2.1875 C-2.37407898 4.31906736 -3.20676315 5.82705259 -4 9 C-3.01 10.485 -3.01 10.485 -2 12 C-4.97 11.505 -4.97 11.505 -8 11 C-8 8 -8 8 -7 6 C-7.66 5.67 -8.32 5.34 -9 5 C-8.43410156 4.72285156 -7.86820312 4.44570312 -7.28515625 4.16015625 C-6.55167969 3.79792969 -5.81820312 3.43570313 -5.0625 3.0625 C-3.96615234 2.52302734 -3.96615234 2.52302734 -2.84765625 1.97265625 C-1.03750973 1.13628173 -1.03750973 1.13628173 0 0 Z M-10 11 C-9.01 11.33 -8.02 11.66 -7 12 C-7 13.32 -7 14.64 -7 16 C-8.32 16.33 -9.64 16.66 -11 17 C-10.67 15.02 -10.34 13.04 -10 11 Z " fill="#F4F3EC" transform="translate(85,87)"/>
<path d="M0 0 C0.33 0 0.66 0 1 0 C1.12117188 1.02480469 1.24234375 2.04960938 1.3671875 3.10546875 C1.53610459 4.46618979 1.7053952 5.8268645 1.875 7.1875 C1.95363281 7.86103516 2.03226563 8.53457031 2.11328125 9.22851562 C2.49984259 12.27640308 2.97765255 14.94474785 4.1328125 17.80078125 C5 20 5 20 4 23 C0.535 21.02 0.535 21.02 -3 19 C-2.68289062 18.15179688 -2.36578125 17.30359375 -2.0390625 16.4296875 C-0.97128768 12.90522775 -0.59958921 9.79329043 -0.375 6.125 C-0.30023437 4.97257812 -0.22546875 3.82015625 -0.1484375 2.6328125 C-0.09945313 1.76398437 -0.05046875 0.89515625 0 0 Z " fill="#F6F2D6" transform="translate(28,54)"/>
<path d="M0 0 C0.804375 0.7425 0.804375 0.7425 1.625 1.5 C4.59358445 3.37489544 6.55312427 3.23501425 10 3 C9.625 4.9375 9.625 4.9375 9 7 C8.01 7.495 8.01 7.495 7 8 C7.33 9.65 7.66 11.3 8 13 C7.01 12.67 6.02 12.34 5 12 C5 11.34 5 10.68 5 10 C3.68 9.67 2.36 9.34 1 9 C2.32 8.67 3.64 8.34 5 8 C5 7.34 5 6.68 5 6 C3.35 6 1.7 6 0 6 C0 4.02 0 2.04 0 0 Z " fill="#F1D693" transform="translate(60,57)"/>
<path d="M0 0 C0.66 0 1.32 0 2 0 C1.3405469 3.69293736 0.47070566 4.70572579 -2 8 C-7.94 6.515 -7.94 6.515 -14 5 C-14 3.68 -14 2.36 -14 1 C-10 2.33333333 -6 3.66666667 -2 5 C-2 4.34 -2 3.68 -2 3 C-1.34 3 -0.68 3 0 3 C0 2.01 0 1.02 0 0 Z " fill="#EDE7DE" transform="translate(90,76)"/>
<path d="M0 0 C2 1 2 1 3 3 C3.125 6.0625 3.125 6.0625 3 9 C2 10 2 10 -0.06640625 10.09765625 C-0.89011719 10.08605469 -1.71382813 10.07445312 -2.5625 10.0625 C-3.38878906 10.05347656 -4.21507813 10.04445313 -5.06640625 10.03515625 C-5.70449219 10.02355469 -6.34257813 10.01195312 -7 10 C-7 9.34 -7 8.68 -7 8 C-4.36 7.67 -1.72 7.34 1 7 C1 6.34 1 5.68 1 5 C-0.65 5 -2.3 5 -4 5 C-4.33 4.34 -4.66 3.68 -5 3 C-3.35 3 -1.7 3 0 3 C0 2.01 0 1.02 0 0 Z " fill="#81571F" transform="translate(117,40)"/>
<path d="M0 0 C0.99 0.33 1.98 0.66 3 1 C3 1.66 3 2.32 3 3 C3.66 3 4.32 3 5 3 C5 3.99 5 4.98 5 6 C5.66 6.33 6.32 6.66 7 7 C7.33 7.66 7.66 8.32 8 9 C7.01 9.495 7.01 9.495 6 10 C5.01 11.485 5.01 11.485 4 13 C3.01 12.34 2.02 11.68 1 11 C1.66 10.67 2.32 10.34 3 10 C1.35 7.69 -0.3 5.38 -2 3 C-1.34 3 -0.68 3 0 3 C0 2.01 0 1.02 0 0 Z " fill="#82572B" transform="translate(18,24)"/>
<path d="M0 0 C1.98 0.66 3.96 1.32 6 2 C6.33 1.34 6.66 0.68 7 0 C7.99 0.33 8.98 0.66 10 1 C10.33 2.65 10.66 4.3 11 6 C15.29 6 19.58 6 24 6 C24 6.33 24 6.66 24 7 C9.38513514 7.5472973 9.38513514 7.5472973 3 4 C2.01 3.67 1.02 3.34 0 3 C0 2.01 0 1.02 0 0 Z " fill="#906732" transform="translate(47,88)"/>
<path d="M0 0 C3.5625 0.1875 3.5625 0.1875 5.5625 2.1875 C3.9125 2.1875 2.2625 2.1875 0.5625 2.1875 C0.2325 4.1675 -0.0975 6.1475 -0.4375 8.1875 C-1.7575 8.1875 -3.0775 8.1875 -4.4375 8.1875 C-4.7675 8.8475 -5.0975 9.5075 -5.4375 10.1875 C-5.29700482 8.70781676 -5.14995174 7.22875484 -5 5.75 C-4.91878906 4.92628906 -4.83757813 4.10257812 -4.75390625 3.25390625 C-4.21903233 -0.23928266 -3.72047047 0.20293475 0 0 Z " fill="#86531D" transform="translate(62.4375,0.8125)"/>
<path d="M0 0 C3.0625 0.3125 3.0625 0.3125 4.9375 1.8125 C5.30875 2.3075 5.68 2.8025 6.0625 3.3125 C5.1034375 3.4671875 5.1034375 3.4671875 4.125 3.625 C3.444375 3.851875 2.76375 4.07875 2.0625 4.3125 C1.7325 5.3025 1.4025 6.2925 1.0625 7.3125 C0.4025 7.3125 -0.2575 7.3125 -0.9375 7.3125 C-0.9375 6.6525 -0.9375 5.9925 -0.9375 5.3125 C-1.5975 5.3125 -2.2575 5.3125 -2.9375 5.3125 C-3.2675 5.9725 -3.5975 6.6325 -3.9375 7.3125 C-4.5975 7.3125 -5.2575 7.3125 -5.9375 7.3125 C-4.86460706 0.51751139 -4.86460706 0.51751139 0 0 Z " fill="#7B4713" transform="translate(21.9375,19.6875)"/>
<path d="M0 0 C0.99 0.33 1.98 0.66 3 1 C3.25 3.3125 3.25 3.3125 3 6 C1.1875 7.8125 1.1875 7.8125 -1 9 C-1.99 9 -2.98 9 -4 9 C-4.33 7.35 -4.66 5.7 -5 4 C-2.6875 1.9375 -2.6875 1.9375 0 0 Z " fill="#6E5233" transform="translate(110,108)"/>
<path d="M0 0 C1.25384913 3.76154738 0.64954477 6.10273139 0 10 C-0.185625 11.299375 -0.37125 12.59875 -0.5625 13.9375 C-0.706875 14.948125 -0.85125 15.95875 -1 17 C-2.32 16.67 -3.64 16.34 -5 16 C-3.90301833 10.30860098 -2.45946923 5.25432063 0 0 Z " fill="#FBF0D2" transform="translate(26,34)"/>
<path d="M0 0 C9.59453303 2.89066059 9.59453303 2.89066059 13 6 C10.36 5.67 7.72 5.34 5 5 C4.34 6.32 3.68 7.64 3 9 C2.34 8.67 1.68 8.34 1 8 C0.40644386 5.35139573 0.25790731 2.70802678 0 0 Z M-2 8 C-1.01 8.33 -0.02 8.66 1 9 C1 9.66 1 10.32 1 11 C0.01 10.67 -0.98 10.34 -2 10 C-2 9.34 -2 8.68 -2 8 Z " fill="#F4EFE7" transform="translate(75,17)"/>
<path d="M0 0 C0.33 0 0.66 0 1 0 C1.33 4.29 1.66 8.58 2 13 C2.33 13 2.66 13 3 13 C2.9071875 14.1446875 2.9071875 14.1446875 2.8125 15.3125 C2.74101915 18.04525312 2.74101915 18.04525312 4.5 19.8125 C4.995 20.204375 5.49 20.59625 6 21 C4.68 21 3.36 21 2 21 C1.67 21.99 1.34 22.98 1 24 C-1.65350475 19.10823362 -1.02440164 14.54347593 -0.625 9.1875 C-0.56828125 8.30384766 -0.5115625 7.42019531 -0.453125 6.50976562 C-0.31232863 4.3391549 -0.1575466 2.16945929 0 0 Z " fill="#8F6737" transform="translate(108,53)"/>
<path d="M0 0 C1.1446875 0.3403125 1.1446875 0.3403125 2.3125 0.6875 C1.3225 1.0175 0.3325 1.3475 -0.6875 1.6875 C-0.6875 2.6775 -0.6875 3.6675 -0.6875 4.6875 C-2.3375 5.0175 -3.9875 5.3475 -5.6875 5.6875 C-5.6875 7.3375 -5.6875 8.9875 -5.6875 10.6875 C-5.0275 11.0175 -4.3675 11.3475 -3.6875 11.6875 C-5.3375 11.3575 -6.9875 11.0275 -8.6875 10.6875 C-8.6875 9.3675 -8.6875 8.0475 -8.6875 6.6875 C-8.0275 6.6875 -7.3675 6.6875 -6.6875 6.6875 C-6.584375 6.089375 -6.48125 5.49125 -6.375 4.875 C-5.20132401 1.1405764 -4.05011377 -0.47094346 0 0 Z " fill="#74491B" transform="translate(58.6875,49.3125)"/>
<path d="M0 0 C0.66 0 1.32 0 2 0 C2.33 1.65 2.66 3.3 3 5 C-1.625 8 -1.625 8 -5 8 C-5.66 6.35 -6.32 4.7 -7 3 C-5.68 2.67 -4.36 2.34 -3 2 C-2.67 2.99 -2.34 3.98 -2 5 C-1.34 3.35 -0.68 1.7 0 0 Z " fill="#6B4F2F" transform="translate(98,116)"/>
<path d="M0 0 C1.32 0 2.64 0 4 0 C4 2 4 2 2.5 3.625 C2.005 4.07875 1.51 4.5325 1 5 C1.99 5 2.98 5 4 5 C4 6.32 4 7.64 4 9 C4.66 9.33 5.32 9.66 6 10 C3.03 9.67 0.06 9.34 -3 9 C-3 8.34 -3 7.68 -3 7 C-2.34 7 -1.68 7 -1 7 C-1.309375 5.824375 -1.309375 5.824375 -1.625 4.625 C-1.74875 3.75875 -1.8725 2.8925 -2 2 C-1.34 1.34 -0.68 0.68 0 0 Z " fill="#8C521D" transform="translate(26,90)"/>
<path d="M0 0 C1.32 1.32 2.64 2.64 4 4 C4.33 3.67 4.66 3.34 5 3 C6.51928038 2.92820036 8.04167482 2.91607993 9.5625 2.9375 C10.38878906 2.94652344 11.21507813 2.95554687 12.06640625 2.96484375 C12.70449219 2.97644531 13.34257813 2.98804687 14 3 C13 5 13 5 11 7 C8.21787848 7.65495777 5.77728327 7.68853481 3 7 C0.97170628 4.59140121 0 3.16955691 0 0 Z " fill="#5B3504" transform="translate(59,87)"/>
<path d="M0 0 C0.33 0.99 0.66 1.98 1 3 C2.65 2.67 4.3 2.34 6 2 C6 3.65 6 5.3 6 7 C2.37 6.67 -1.26 6.34 -5 6 C-4.67 5.34 -4.34 4.68 -4 4 C-3.34 4 -2.68 4 -2 4 C-2 3.01 -2 2.02 -2 1 C-1.34 0.67 -0.68 0.34 0 0 Z " fill="#F7F1D5" transform="translate(18,65)"/>
<path d="M0 0 C2.64453125 0.3125 2.64453125 0.3125 4.4453125 2.0625 C4.94417969 2.805 5.44304688 3.5475 5.95703125 4.3125 C6.46878906 5.055 6.98054688 5.7975 7.5078125 6.5625 C7.88292969 7.14 8.25804687 7.7175 8.64453125 8.3125 C8.31453125 8.9725 7.98453125 9.6325 7.64453125 10.3125 C6.98453125 9.3225 6.32453125 8.3325 5.64453125 7.3125 C1.33392676 5.09086507 1.33392676 5.09086507 -3.35546875 4.3125 C-4.34546875 4.8075 -4.34546875 4.8075 -5.35546875 5.3125 C-2.97594551 0.39481864 -2.97594551 0.39481864 0 0 Z " fill="#6E4615" transform="translate(40.35546875,4.6875)"/>
<path d="M0 0 C2.72426311 2.35277269 3.8141763 4.62496331 5 8 C3.68 7.67 2.36 7.34 1 7 C1.33 7.66 1.66 8.32 2 9 C2.99 9.33 3.98 9.66 5 10 C4.34 10.66 3.68 11.32 3 12 C0.375 11.625 0.375 11.625 -2 11 C-2.33 9.68 -2.66 8.36 -3 7 C-1.68 6.67 -0.36 6.34 1 6 C0.67 4.02 0.34 2.04 0 0 Z " fill="#714217" transform="translate(65,49)"/>
<path d="M0 0 C0.66 0.33 1.32 0.66 2 1 C1.9175 2.2375 1.835 3.475 1.75 4.75 C1.7262052 8.10506698 1.80358323 8.75447904 4 11.5 C4.66 11.995 5.32 12.49 6 13 C5.67 13.66 5.34 14.32 5 15 C3.84481082 14.09515208 2.70114594 13.1755794 1.5625 12.25 C0.92441406 11.73953125 0.28632812 11.2290625 -0.37109375 10.703125 C-2.2243398 8.76543848 -2.74721832 7.6542076 -3 5 C-1.5625 2.25 -1.5625 2.25 0 0 Z " fill="#6F441A" transform="translate(107,74)"/>
<path d="M0 0 C2.27608233 3.4141235 2.16488977 4.15710661 1.6875 8.0625 C1.58824219 8.94035156 1.48898438 9.81820312 1.38671875 10.72265625 C1 13 1 13 0 15 C-1.32 14.67 -2.64 14.34 -4 14 C-3.52188823 12.22888156 -3.0424722 10.45811517 -2.5625 8.6875 C-2.29566406 7.70136719 -2.02882813 6.71523437 -1.75390625 5.69921875 C-1.21920575 3.78482474 -0.62855462 1.88566385 0 0 Z " fill="#482819" transform="translate(8,67)"/>
<path d="M0 0 C1.32 0 2.64 0 4 0 C3.125 5.75 3.125 5.75 2 8 C1.01 8 0.02 8 -1 8 C-1 9.65 -1 11.3 -1 13 C-1.66 12.67 -2.32 12.34 -3 12 C-2.68950274 10.56206608 -2.3765224 9.1246682 -2.0625 7.6875 C-1.88847656 6.88699219 -1.71445312 6.08648437 -1.53515625 5.26171875 C-1 3 -1 3 0 0 Z " fill="#452E27" transform="translate(18,36)"/>
<path d="M0 0 C0.33 0.66 0.66 1.32 1 2 C-6.34782609 12.17391304 -6.34782609 12.17391304 -12 15 C-12.99 14.67 -13.98 14.34 -15 14 C-14.236875 13.401875 -13.47375 12.80375 -12.6875 12.1875 C-10.08664741 10.15995888 -10.08664741 10.15995888 -8.3125 8.25 C-7 7 -7 7 -5 7 C-3.64287834 5.44144019 -3.64287834 5.44144019 -2.375 3.5 C-1.92898437 2.8503125 -1.48296875 2.200625 -1.0234375 1.53125 C-0.68570313 1.0259375 -0.34796875 0.520625 0 0 Z " fill="#663E1C" transform="translate(93,76)"/>
<path d="M0 0 C2 1.1875 2 1.1875 4 3 C4.25 5.6875 4.25 5.6875 4 8 C3.34 8 2.68 8 2 8 C1.67 8.66 1.34 9.32 1 10 C-2.0651341 5.5862069 -2.0651341 5.5862069 -1.75 2.75 C-1 1 -1 1 0 0 Z " fill="#F8FBF7" transform="translate(95,78)"/>
<path d="M0 0 C3.33333333 0 6.66666667 0 10 0 C8.68 0.33 7.36 0.66 6 1 C6.33 2.32 6.66 3.64 7 5 C4.69 5.66 2.38 6.32 0 7 C-0.38133299 5.0085944 -0.71325582 3.00720923 -1 1 C-0.67 0.67 -0.34 0.34 0 0 Z " fill="#D0A44F" transform="translate(60,33)"/>
<path d="M0 0 C3.65316671 1.24976756 4.78065836 1.67098753 7 5 C7.82375082 8.59454905 8.17790906 10.46627283 7 14 C5.82807953 12.04480616 4.6626071 10.0857461 3.5 8.125 C2.8503125 7.03445312 2.200625 5.94390625 1.53125 4.8203125 C0 2 0 2 0 0 Z " fill="#6F3A0C" transform="translate(99,31)"/>
<path d="M0 0 C-3.625 3 -3.625 3 -7 3 C-7 4.98 -7 6.96 -7 9 C-9.1519437 5.77208445 -9.20086443 4.71599191 -9 1 C-9.99 0.67 -10.98 0.34 -12 0 C-7.66726186 -0.92844389 -4.33273814 -0.92844389 0 0 Z " fill="#744C1D" transform="translate(82,104)"/>
<path d="M0 0 C2.475 0.99 2.475 0.99 5 2 C4.67 2.99 4.34 3.98 4 5 C3.34 5 2.68 5 2 5 C2 5.66 2 6.32 2 7 C0.68 7.33 -0.64 7.66 -2 8 C-1.67 7.01 -1.34 6.02 -1 5 C-1.66 5 -2.32 5 -3 5 C-1.125 1.125 -1.125 1.125 0 0 Z " fill="#7F664A" transform="translate(116,103)"/>
<path d="M0 0 C1.22589844 0.01353516 1.22589844 0.01353516 2.4765625 0.02734375 C3.41628906 0.04474609 3.41628906 0.04474609 4.375 0.0625 C4.375 0.7225 4.375 1.3825 4.375 2.0625 C1.735 2.3925 -0.905 2.7225 -3.625 3.0625 C-3.955 4.7125 -4.285 6.3625 -4.625 8.0625 C-6.0856285 5.41511084 -6.625 4.16801666 -6.625 1.0625 C-4.21954362 -0.14022819 -2.67503047 -0.03821472 0 0 Z " fill="#824A12" transform="translate(113.625,44.9375)"/>
<path d="M0 0 C0.8125 1.6875 0.8125 1.6875 1 4 C-2.67767693 8.98265907 -6.18976585 9.91673601 -12 11 C-10.29374499 8.21611025 -9.52373261 7.14615794 -6.3125 6.25 C-5.1678125 6.12625 -5.1678125 6.12625 -4 6 C-4 5.01 -4 4.02 -4 3 C-2 1.3125 -2 1.3125 0 0 Z " fill="#653A0C" transform="translate(36,21)"/>
<path d="M0 0 C0.598125 0.185625 1.19625 0.37125 1.8125 0.5625 C4.16408762 1.22093687 4.16408762 1.22093687 7 0 C7 0.66 7 1.32 7 2 C7.66 2.33 8.32 2.66 9 3 C8.34 3 7.68 3 7 3 C6.67 4.65 6.34 6.3 6 8 C1.125 3.375 1.125 3.375 0 0 Z " fill="#7A4C17" transform="translate(83,105)"/>
<path d="M0 0 C0.33 0.66 0.66 1.32 1 2 C0.01 3.485 0.01 3.485 -1 5 C-1.99 4.67 -2.98 4.34 -4 4 C-4 4.66 -4 5.32 -4 6 C-2.35 6.33 -0.7 6.66 1 7 C0.67 7.66 0.34 8.32 0 9 C-2.31 8.67 -4.62 8.34 -7 8 C-7 7.34 -7 6.68 -7 6 C-7.66 5.34 -8.32 4.68 -9 4 C-6.03 2.68 -3.06 1.36 0 0 Z " fill="#855D2B" transform="translate(87,98)"/>
<path d="M0 0 C3 0 3 0 4.82421875 1.75 C5.43910156 2.4925 6.05398437 3.235 6.6875 4 C7.31011719 4.7425 7.93273437 5.485 8.57421875 6.25 C9.04472656 6.8275 9.51523438 7.405 10 8 C9.01 8.495 9.01 8.495 8 9 C7.67 9.66 7.34 10.32 7 11 C6.34 10.67 5.68 10.34 5 10 C5 8.68 5 7.36 5 6 C3.68 5.67 2.36 5.34 1 5 C1 4.34 1 3.68 1 3 C0.34 2.67 -0.32 2.34 -1 2 C-0.67 1.34 -0.34 0.68 0 0 Z " fill="#86551F" transform="translate(103,81)"/>
<path d="M0 0 C1.98 0 3.96 0 6 0 C6 0.66 6 1.32 6 2 C5.01 2.495 5.01 2.495 4 3 C4.99 4.485 4.99 4.485 6 6 C3.69 6.33 1.38 6.66 -1 7 C-1 6.34 -1 5.68 -1 5 C-0.34 4.67 0.32 4.34 1 4 C0.01 3.34 -0.98 2.68 -2 2 C-1.34 2 -0.68 2 0 2 C0 1.34 0 0.68 0 0 Z " fill="#AC7933" transform="translate(53,38)"/>
<path d="M0 0 C5.94 0 11.88 0 18 0 C18.66 1.32 19.32 2.64 20 4 C19.2265625 3.86722656 18.453125 3.73445313 17.65625 3.59765625 C11.78024213 2.60135293 5.92067973 1.68315535 0 1 C0 0.67 0 0.34 0 0 Z " fill="#6E3806" transform="translate(60,14)"/>
<path d="M0 0 C0.99 0.33 1.98 0.66 3 1 C-1.29290618 5.75286041 -1.29290618 5.75286041 -5 6 C-5.66 5.34 -6.32 4.68 -7 4 C-7 3.01 -7 2.02 -7 1 C-5.5459375 1.0309375 -5.5459375 1.0309375 -4.0625 1.0625 C-1.12534105 1.35618499 -1.12534105 1.35618499 0 0 Z " fill="#F2F4EC" transform="translate(44,76)"/>
<path d="M0 0 C1.32 0 2.64 0 4 0 C3.67 2.31 3.34 4.62 3 7 C3.99 7.66 4.98 8.32 6 9 C4.35 9.33 2.7 9.66 1 10 C-0.60725635 6.78548731 -0.05748185 3.56387464 0 0 Z " fill="#C08438" transform="translate(53,62)"/>
<path d="M0 0 C1.98 0.495 1.98 0.495 4 1 C3.01 1.33 2.02 1.66 1 2 C1 2.66 1 3.32 1 4 C4.465 3.505 4.465 3.505 8 3 C7.67 4.32 7.34 5.64 7 7 C4.36 6.67 1.72 6.34 -1 6 C-0.67 4.02 -0.34 2.04 0 0 Z " fill="#7F4B13" transform="translate(51,41)"/>
<path d="M0 0 C1.98 0 3.96 0 6 0 C6.33 2.97 6.66 5.94 7 9 C5 8 5 8 4.0625 6 C3.1108154 3.65391779 3.1108154 3.65391779 0 3 C0 2.01 0 1.02 0 0 Z " fill="#7C4815" transform="translate(63,3)"/>
<path d="M0 0 C0.99 2.97 1.98 5.94 3 9 C-0.875 5.25 -0.875 5.25 -2 3 C-2.99 4.485 -2.99 4.485 -4 6 C-4.12375 5.360625 -4.2475 4.72125 -4.375 4.0625 C-4.684375 3.0415625 -4.684375 3.0415625 -5 2 C-5.66 1.67 -6.32 1.34 -7 1 C-4.53721199 -0.231394 -2.7204945 -0.07159196 0 0 Z " fill="#643D1B" transform="translate(75,79)"/>
<path d="M0 0 C2.97 0.495 2.97 0.495 6 1 C6 3.64 6 6.28 6 9 C6.99 9.33 7.98 9.66 9 10 C7.35 10.33 5.7 10.66 4 11 C4 8.36 4 5.72 4 3 C3.34 2.67 2.68 2.34 2 2 C2 2.99 2 3.98 2 5 C1.34 5 0.68 5 0 5 C0 3.35 0 1.7 0 0 Z " fill="#542606" transform="translate(53,55)"/>
<path d="M0 0 C3.63 0 7.26 0 11 0 C11 1.33333333 11 2.66666667 11 4 C6.94393835 3.53199289 3.53411321 3.12046792 0 1 C0 0.67 0 0.34 0 0 Z " fill="#F9F8F4" transform="translate(41,98)"/>
<path d="M0 0 C2.31 0.33 4.62 0.66 7 1 C7.33 2.98 7.66 4.96 8 7 C7.34 7 6.68 7 6 7 C5.67 5.68 5.34 4.36 5 3 C4.34 3.66 3.68 4.32 3 5 C0.525 4.01 0.525 4.01 -2 3 C-1.34 2.67 -0.68 2.34 0 2 C0 1.34 0 0.68 0 0 Z " fill="#846D52" transform="translate(43,123)"/>
<path d="M0 0 C0.99 0.495 0.99 0.495 2 1 C2.6328125 3.28515625 2.6328125 3.28515625 3.125 6.0625 C3.29257813 6.98160156 3.46015625 7.90070313 3.6328125 8.84765625 C3.75398438 9.55792969 3.87515625 10.26820312 4 11 C2.68 11.33 1.36 11.66 0 12 C0 8.04 0 4.08 0 0 Z " fill="#7D4915" transform="translate(93,98)"/>
<path d="M0 0 C0 3 0 3 -2 6 C-2.68177416 7.32567199 -3.35191436 8.65753688 -4 10 C-5.65 10 -7.3 10 -9 10 C-8.06409496 8.8944811 -7.12620142 7.79064547 -6.1875 6.6875 C-5.66542969 6.07261719 -5.14335938 5.45773438 -4.60546875 4.82421875 C-3.12827531 3.14575321 -1.59960869 1.56117966 0 0 Z " fill="#6A370B" transform="translate(100,87)"/>
<path d="M0 0 C1.65 0 3.3 0 5 0 C6.4606285 2.64738916 7 3.89448334 7 7 C6.01 6.67 5.02 6.34 4 6 C2.66893378 5.65772583 1.33599921 5.32248257 0 5 C0 3.35 0 1.7 0 0 Z " fill="#522E12" transform="translate(34,86)"/>
<path d="M0 0 C2.9375 1.5625 2.9375 1.5625 6 4 C6.8125 7.625 6.8125 7.625 7 11 C7.33 11.66 7.66 12.32 8 13 C6.68 13 5.36 13 4 13 C3.87882812 12.39671875 3.75765625 11.7934375 3.6328125 11.171875 C3.46523438 10.37265625 3.29765625 9.5734375 3.125 8.75 C2.96257813 7.96109375 2.80015625 7.1721875 2.6328125 6.359375 C2.00849925 4.03168856 1.15161458 2.10968048 0 0 Z " fill="#603516" transform="translate(54,81)"/>
<path d="M0 0 C0.33 0.66 0.66 1.32 1 2 C1.69867188 1.97679688 2.39734375 1.95359375 3.1171875 1.9296875 C4.02726563 1.91164063 4.93734375 1.89359375 5.875 1.875 C6.77992187 1.85179688 7.68484375 1.82859375 8.6171875 1.8046875 C11 2 11 2 13 4 C8.38 4 3.76 4 -1 4 C-0.67 2.68 -0.34 1.36 0 0 Z " fill="#FBF8E4" transform="translate(10,71)"/>
<path d="M0 0 C1.98 0.99 3.96 1.98 6 3 C1.25 7 1.25 7 -1 7 C-1.33 5.35 -1.66 3.7 -2 2 C-1.34 2 -0.68 2 0 2 C0 1.34 0 0.68 0 0 Z " fill="#4A220C" transform="translate(30,82)"/>
<path d="M0 0 C0.66 0 1.32 0 2 0 C1.71640113 1.4391134 1.42278601 2.87625518 1.125 4.3125 C0.96257813 5.11300781 0.80015625 5.91351563 0.6328125 6.73828125 C0 9 0 9 -2 12 C-2 11.34 -2 10.68 -2 10 C-2.66 10 -3.32 10 -4 10 C-2.8905928 6.51329166 -1.73662334 3.22515763 0 0 Z " fill="#3B140B" transform="translate(17,44)"/>
<path d="M0 0 C0.33 0.99 0.66 1.98 1 3 C-3.75 7 -3.75 7 -6 7 C-6.185625 6.071875 -6.185625 6.071875 -6.375 5.125 C-6.87197356 2.80879168 -6.87197356 2.80879168 -9 1 C-8.071875 1.20625 -7.14375 1.4125 -6.1875 1.625 C-2.84826598 2.36692966 -2.84826598 2.36692966 0 0 Z " fill="#F6F2DB" transform="translate(42,31)"/>
<path d="M0 0 C0.91007812 0.00902344 1.82015625 0.01804687 2.7578125 0.02734375 C3.45648438 0.03894531 4.15515625 0.05054687 4.875 0.0625 C5.205 0.7225 5.535 1.3825 5.875 2.0625 C2.575 2.3925 -0.725 2.7225 -4.125 3.0625 C-4.455 4.0525 -4.785 5.0425 -5.125 6.0625 C-5.785 4.4125 -6.445 2.7625 -7.125 1.0625 C-4.60024538 -0.19987731 -2.81299534 -0.03606404 0 0 Z " fill="#7C5829" transform="translate(102.125,22.9375)"/>
<path d="M0 0 C0.33 1.65 0.66 3.3 1 5 C-1 5 -1 5 -2.625 3.5 C-3.07875 3.005 -3.5325 2.51 -4 2 C-3.67 3.32 -3.34 4.64 -3 6 C-3.99 6.33 -4.98 6.66 -6 7 C-6.33 5.02 -6.66 3.04 -7 1 C-4 0 -4 0 0 0 Z " fill="#674A29" transform="translate(91,121)"/>
<path d="M0 0 C4.41889613 1.35021826 6.34345343 3.26115668 9 7 C8.67 7.66 8.34 8.32 8 9 C7.34 9 6.68 9 6 9 C5.54625 8.030625 5.0925 7.06125 4.625 6.0625 C3.34213779 2.92920418 3.34213779 2.92920418 1 2 C0.67 2.66 0.34 3.32 0 4 C0 2.68 0 1.36 0 0 Z " fill="#B07638" transform="translate(66,56)"/>
<path d="M0 0 C-0.33 1.32 -0.66 2.64 -1 4 C-1.66 3.67 -2.32 3.34 -3 3 C-3 3.66 -3 4.32 -3 5 C-4.65 4.67 -6.3 4.34 -8 4 C-4.5 0 -4.5 0 0 0 Z " fill="#56260B" transform="translate(65,45)"/>
<path d="M0 0 C3.29148243 1.13499394 3.9959869 1.99283376 5.75 5.125 C6.1625 6.07375 6.575 7.0225 7 8 C5.02 8.99 5.02 8.99 3 10 C2.71125 8.88625 2.4225 7.7725 2.125 6.625 C1.30758671 2.99708908 1.30758671 2.99708908 -1 1 C-0.67 0.67 -0.34 0.34 0 0 Z " fill="#F4F4ED" transform="translate(87,38)"/>
<path d="M0 0 C0.66 0 1.32 0 2 0 C1.27991594 4.60853797 -0.31295939 8.67237409 -2 13 C-3.39317881 8.82046357 -2.72456588 5.61961785 -0.9375 1.625 C-0.4734375 0.820625 -0.4734375 0.820625 0 0 Z " fill="#C9BD93" transform="translate(24,33)"/>
<path d="M0 0 C2 0 2 0 4.375 2.3125 C5.24125 3.199375 6.1075 4.08625 7 5 C7.763125 5.556875 8.52625 6.11375 9.3125 6.6875 C9.869375 7.120625 10.42625 7.55375 11 8 C11 8.66 11 9.32 11 10 C7.43235179 9.42380903 5.74840503 8.13030516 3.25 5.5625 C2.63640625 4.94503906 2.0228125 4.32757813 1.390625 3.69140625 C0 2 0 2 0 0 Z " fill="#EBE6CE" transform="translate(36,82)"/>
<path d="M0 0 C0.66 1.32 1.32 2.64 2 4 C-0.1871289 5.32789969 -1.47720456 6.04752686 -4.0625 5.8125 C-6 5 -6 5 -9 2 C-6.03 2 -3.06 2 0 2 C0 1.34 0 0.68 0 0 Z " fill="#ECD396" transform="translate(70,75)"/>
<path d="M0 0 C0 1.98 0 3.96 0 6 C-2.31 6.33 -4.62 6.66 -7 7 C-6.34 6.34 -5.68 5.68 -5 5 C-5.33 4.34 -5.66 3.68 -6 3 C-1.125 0 -1.125 0 0 0 Z " fill="#B07D33" transform="translate(70,71)"/>
<path d="M0 0 C0.99 0 1.98 0 3 0 C3 0.99 3 1.98 3 3 C3.66 3.33 4.32 3.66 5 4 C4 5 4 5 1.71484375 5.09765625 C0.34005859 5.08025391 0.34005859 5.08025391 -1.0625 5.0625 C-1.98160156 5.05347656 -2.90070313 5.04445313 -3.84765625 5.03515625 C-4.55792969 5.02355469 -5.26820312 5.01195313 -6 5 C-6 4.67 -6 4.34 -6 4 C-4.35 3.67 -2.7 3.34 -1 3 C-0.67 2.01 -0.34 1.02 0 0 Z " fill="#73440C" transform="translate(116,70)"/>
<path d="M0 0 C2.12508244 3.18762365 2.5020163 5.26512223 3 9 C2.34 9 1.68 9 1 9 C1 11.31 1 13.62 1 16 C0.67 16 0.34 16 0 16 C0 10.72 0 5.44 0 0 Z " fill="#6A3602" transform="translate(109,52)"/>
<path d="M0 0 C2.97 0 5.94 0 9 0 C8.67 0.99 8.34 1.98 8 3 C6.02 3 4.04 3 2 3 C1.67 3.66 1.34 4.32 1 5 C0.67 3.35 0.34 1.7 0 0 Z " fill="#8D4F0F" transform="translate(98,26)"/>
<path d="M0 0 C1.32 0.33 2.64 0.66 4 1 C5.125 4.75 5.125 4.75 4 7 C0.535 5.02 0.535 5.02 -3 3 C-2.01 2.67 -1.02 2.34 0 2 C0 1.34 0 0.68 0 0 Z " fill="#F2F3EA" transform="translate(80,26)"/>
<path d="M0 0 C1.95216435 1.95216435 2.84826645 3.53199953 4 6 C5.32 6 6.64 6 8 6 C8.66 6.33 9.32 6.66 10 7 C9.67 8.32 9.34 9.64 9 11 C8.34 11 7.68 11 7 11 C6.67 10.34 6.34 9.68 6 9 C5.175 8.5875 4.35 8.175 3.5 7.75 C1 6 1 6 0.1875 2.8125 C0.125625 1.884375 0.06375 0.95625 0 0 Z " fill="#DBAA63" transform="translate(67,49)"/>
<path d="M0 0 C0.99 0.66 1.98 1.32 3 2 C3 3.32 3 4.64 3 6 C0.69 6 -1.62 6 -4 6 C-3.34 5.67 -2.68 5.34 -2 5 C-1.27840576 3.35636866 -0.60648579 1.68949614 0 0 Z " fill="#4E2806" transform="translate(48,90)"/>
<path d="M0 0 C2.475 0.99 2.475 0.99 5 2 C5 3.32 5 4.64 5 6 C4.01 6.495 4.01 6.495 3 7 C1.68 5.02 0.36 3.04 -1 1 C-0.67 0.67 -0.34 0.34 0 0 Z " fill="#3A1401" transform="translate(55,79)"/>
<path d="M0 0 C0.99 0.66 1.98 1.32 3 2 C2.34 2 1.68 2 1 2 C0.34 4.31 -0.32 6.62 -1 9 C0.65 9 2.3 9 4 9 C4 9.66 4 10.32 4 11 C1.03 10.505 1.03 10.505 -2 10 C-2.1953125 3.9453125 -2.1953125 3.9453125 -2 2 C-1.34 1.34 -0.68 0.68 0 0 Z " fill="#C9A35A" transform="translate(61,54)"/>
<path d="M0 0 C0.99 0 1.98 0 3 0 C6 6.625 6 6.625 6 10 C5.34 10 4.68 10 4 10 C2.68 6.7 1.36 3.4 0 0 Z " fill="#EDE9E0" transform="translate(101,39)"/>
<path d="M0 0 C0.66 0.33 1.32 0.66 2 1 C0.28032649 4.02990095 -1.29238306 6.76327296 -4 9 C-4.66 9 -5.32 9 -6 9 C-4.68775452 5.06326356 -3.08089673 2.77280706 0 0 Z " fill="#F1ECE3" transform="translate(42,35)"/>
<path d="M0 0 C0.66 0 1.32 0 2 0 C2.33 1.98 2.66 3.96 3 6 C4.32 5.67 5.64 5.34 7 5 C5.6875 6.5 5.6875 6.5 4 8 C3.01 8 2.02 8 1 8 C0.67 5.36 0.34 2.72 0 0 Z " fill="#794C0D" transform="translate(40,13)"/>
<path d="M0 0 C0 0.66 0 1.32 0 2 C0.99 2.33 1.98 2.66 3 3 C-1.95 3 -6.9 3 -12 3 C-7.92834397 0.96417198 -4.54795711 0 0 0 Z " fill="#8B5D2E" transform="translate(64,11)"/>
<path d="M0 0 C1.32 0 2.64 0 4 0 C3.67 0.99 3.34 1.98 3 3 C4.32 3 5.64 3 7 3 C7.33 3.99 7.66 4.98 8 6 C5.69 5.67 3.38 5.34 1 5 C0.67 3.35 0.34 1.7 0 0 Z " fill="#614321" transform="translate(39,123)"/>
<path d="M0 0 C1.98 0.66 3.96 1.32 6 2 C6 3.32 6 4.64 6 6 C4.68 6.33 3.36 6.66 2 7 C1.34 4.69 0.68 2.38 0 0 Z " fill="#633C11" transform="translate(59,80)"/>
<path d="M0 0 C3.94727588 -0.17942163 6.5980513 -0.09350689 10 2 C9.67 2.66 9.34 3.32 9 4 C8.4225 3.814375 7.845 3.62875 7.25 3.4375 C4.79307475 2.95976454 3.35602466 3.24270636 1 4 C0.67 2.68 0.34 1.36 0 0 Z " fill="#381904" transform="translate(20,80)"/>
<path d="M0 0 C0.66 0.33 1.32 0.66 2 1 C1.49396008 3.16874252 1.00016187 4.99967627 0 7 C-0.66 7 -1.32 7 -2 7 C-2.66 5.35 -3.32 3.7 -4 2 C-2.125 0.9375 -2.125 0.9375 0 0 Z " fill="#E8C879" transform="translate(70,62)"/>
<path d="M0 0 C2 3 2 3 2 5 C1.01 5.495 1.01 5.495 0 6 C-0.90343684 7.88263881 -0.90343684 7.88263881 -1.625 10.0625 C-1.88539062 10.79597656 -2.14578125 11.52945313 -2.4140625 12.28515625 C-2.60742188 12.85105469 -2.80078125 13.41695312 -3 14 C-4.37095624 10.30962722 -3.60010967 8.29116165 -2.0625 4.75 C-1.68222656 3.85796875 -1.30195313 2.9659375 -0.91015625 2.046875 C-0.60980469 1.37140625 -0.30945313 0.6959375 0 0 Z " fill="#FAF4D6" transform="translate(20,51)"/>
<path d="M0 0 C0.598125 0.350625 1.19625 0.70125 1.8125 1.0625 C0.4925 2.3825 -0.8275 3.7025 -2.1875 5.0625 C-3.1775 3.4125 -4.1675 1.7625 -5.1875 0.0625 C-2.1875 -0.9375 -2.1875 -0.9375 0 0 Z " fill="#663814" transform="translate(55.1875,46.9375)"/>
<path d="M0 0 C0.99 0.33 1.98 0.66 3 1 C3 1.99 3 2.98 3 4 C1.02 4.66 -0.96 5.32 -3 6 C-3.33 5.01 -3.66 4.02 -4 3 C-2.1875 1.4375 -2.1875 1.4375 0 0 Z " fill="#95816A" transform="translate(110,108)"/>
<path d="M0 0 C0.66 0.33 1.32 0.66 2 1 C0.88671875 2.984375 0.88671875 2.984375 -1 5 C-3.91796875 5.390625 -3.91796875 5.390625 -7.1875 5.25 C-8.27417969 5.21390625 -9.36085937 5.1778125 -10.48046875 5.140625 C-11.31191406 5.09421875 -12.14335938 5.0478125 -13 5 C-13 4.67 -13 4.34 -13 4 C-9.37 4 -5.74 4 -2 4 C-2 3.01 -2 2.02 -2 1 C-1.34 0.67 -0.68 0.34 0 0 Z " fill="#F8F4EE" transform="translate(73,93)"/>
<path d="M0 0 C2.31 0.33 4.62 0.66 7 1 C7 2.65 7 4.3 7 6 C3.63279613 4.60667426 2.0140476 3.0210714 0 0 Z " fill="#E4DBD0" transform="translate(32,91)"/>
<path d="M0 0 C2.64 0.66 5.28 1.32 8 2 C8 2.66 8 3.32 8 4 C5.36 4 2.72 4 0 4 C0 2.68 0 1.36 0 0 Z " fill="#EFF2EC" transform="translate(76,77)"/>
<path d="M0 0 C1.32 0.33 2.64 0.66 4 1 C4 2.32 4 3.64 4 5 C1.69 4.67 -0.62 4.34 -3 4 C-2.01 2.68 -1.02 1.36 0 0 Z " fill="#F2D287" transform="translate(61,68)"/>
<path d="M0 0 C2.625 0.375 2.625 0.375 5 1 C4.01 1.33 3.02 1.66 2 2 C2 2.99 2 3.98 2 5 C1.01 5.33 0.02 5.66 -1 6 C-1.625 4.125 -1.625 4.125 -2 2 C-1.34 1.34 -0.68 0.68 0 0 Z " fill="#B98536" transform="translate(56,49)"/>
<path d="M0 0 C0.99 0.33 1.98 0.66 3 1 C3.33 2.98 3.66 4.96 4 7 C2.68 6.67 1.36 6.34 0 6 C0.66 6 1.32 6 2 6 C2 5.34 2 4.68 2 4 C1.01 4 0.02 4 -1 4 C-0.67 2.68 -0.34 1.36 0 0 Z " fill="#F0D48D" transform="translate(62,48)"/>
<path d="M0 0 C5.75 1.875 5.75 1.875 8 3 C8 4.65 8 6.3 8 8 C7.34 8 6.68 8 6 8 C5.731875 7.360625 5.46375 6.72125 5.1875 6.0625 C4.11332248 3.66868314 4.11332248 3.66868314 1 3 C0.67 2.01 0.34 1.02 0 0 Z " fill="#F2F4EE" transform="translate(90,37)"/>
<path d="M0 0 C1.98 0 3.96 0 6 0 C5.01 0.495 5.01 0.495 4 1 C4 2.65 4 4.3 4 6 C3.01 6 2.02 6 1 6 C0.67 4.02 0.34 2.04 0 0 Z " fill="#895D3D" transform="translate(83,5)"/>
<path d="M0 0 C1.98 0.99 1.98 0.99 4 2 C4 3.32 4 4.64 4 6 C2.68 5.67 1.36 5.34 0 5 C0 3.35 0 1.7 0 0 Z " fill="#EDEAE6" transform="translate(20,112)"/>
<path d="M0 0 C1.32 1.65 2.64 3.3 4 5 C3.67 5.66 3.34 6.32 3 7 C2.01 6.34 1.02 5.68 0 5 C0 5.66 0 6.32 0 7 C-0.99 6.67 -1.98 6.34 -3 6 C-3 5.34 -3 4.68 -3 4 C-2.01 4 -1.02 4 0 4 C0 2.68 0 1.36 0 0 Z " fill="#DAAF67" transform="translate(75,41)"/>
<path d="M0 0 C2.31 0 4.62 0 7 0 C6.67 0.99 6.34 1.98 6 3 C4.02 3.33 2.04 3.66 0 4 C0 2.66666667 0 1.33333333 0 0 Z " fill="#FBFDFE" transform="translate(60,28)"/>
<path d="M0 0 C0.33 1.32 0.66 2.64 1 4 C1.99 4 2.98 4 4 4 C4 4.99 4 5.98 4 7 C2.68 7 1.36 7 0 7 C-0.33 7.66 -0.66 8.32 -1 9 C-0.67 6.03 -0.34 3.06 0 0 Z " fill="#835E2E" transform="translate(58,2)"/>
<path d="M0 0 C3.63 0.33 7.26 0.66 11 1 C11 1.33 11 1.66 11 2 C10.05125 2.12375 9.1025 2.2475 8.125 2.375 C4.91332809 2.71687177 4.91332809 2.71687177 3 5 C3 4.01 3 3.02 3 2 C2.01 1.67 1.02 1.34 0 1 C0 0.67 0 0.34 0 0 Z " fill="#795927" transform="translate(49,106)"/>
<path d="M0 0 C0.99 0 1.98 0 3 0 C2.25 5.75 2.25 5.75 0 8 C-1.09658936 4.71023192 -0.79953138 3.28696233 0 0 Z " fill="#351307" transform="translate(19,36)"/>
<path d="M0 0 C0.66 0 1.32 0 2 0 C2.66 0.66 3.32 1.32 4 2 C4.66 2.33 5.32 2.66 6 3 C3.35261084 4.4606285 2.10551666 5 -1 5 C-0.67 3.35 -0.34 1.7 0 0 Z " fill="#8A5019" transform="translate(45,12)"/>
<path d="M0 0 C2.64 0 5.28 0 8 0 C7.67 1.32 7.34 2.64 7 4 C6.01 4 5.02 4 4 4 C4 3.01 4 2.02 4 1 C2.68 0.67 1.36 0.34 0 0 Z " fill="#98856E" transform="translate(58,125)"/>
<path d="M0 0 C1.5625 1.75 1.5625 1.75 3 4 C2.6875 6.25 2.6875 6.25 2 8 C1.01 7.67 0.02 7.34 -1 7 C-0.67 4.69 -0.34 2.38 0 0 Z " fill="#8C5727" transform="translate(40,106)"/>
<path d="M0 0 C0.598125 0.639375 1.19625 1.27875 1.8125 1.9375 C3.90810337 4.20310389 3.90810337 4.20310389 7 5 C7 5.66 7 6.32 7 7 C5.35 6.67 3.7 6.34 2 6 C1.34 4.02 0.68 2.04 0 0 Z " fill="#4B1C03" transform="translate(59,87)"/>
<path d="M0 0 C1.32 0.33 2.64 0.66 4 1 C4 1.66 4 2.32 4 3 C4.66 3 5.32 3 6 3 C6.33 4.32 6.66 5.64 7 7 C3.00003714 5.66667905 2.16217663 3.5042173 0 0 Z " fill="#5A3312" transform="translate(70,57)"/>
<path d="M0 0 C0.66 0 1.32 0 2 0 C2.33 1.65 2.66 3.3 3 5 C2.01 5.33 1.02 5.66 0 6 C0 5.34 0 4.68 0 4 C-0.99 4.33 -1.98 4.66 -3 5 C-2.67 4.01 -2.34 3.02 -2 2 C-1.34 2 -0.68 2 0 2 C0 1.34 0 0.68 0 0 Z " fill="#DAB266" transform="translate(73,33)"/>
<path d="M0 0 C0.66 0 1.32 0 2 0 C2.33 1.65 2.66 3.3 3 5 C2.01 5.33 1.02 5.66 0 6 C-0.38218767 4.34385343 -0.71395102 2.67542976 -1 1 C-0.67 0.67 -0.34 0.34 0 0 Z " fill="#694C2C" transform="translate(102,114)"/>
<path d="M0 0 C2.64 0 5.28 0 8 0 C4.81237635 2.12508244 2.73487777 2.5020163 -1 3 C-0.67 2.01 -0.34 1.02 0 0 Z " fill="#784913" transform="translate(71,91)"/>
<path d="M0 0 C2.375 -0.1875 2.375 -0.1875 5 0 C5.66 0.99 6.32 1.98 7 3 C5.02 3.33 3.04 3.66 1 4 C0.67 2.68 0.34 1.36 0 0 Z " fill="#4A1F05" transform="translate(59,74)"/>
<path d="M0 0 C0.66 1.32 1.32 2.64 2 4 C2.99 4 3.98 4 5 4 C5 4.66 5 5.32 5 6 C3.02 6.99 3.02 6.99 1 8 C0.67 5.36 0.34 2.72 0 0 Z " fill="#F6FBEC" transform="translate(91,64)"/>
<path d="M0 0 C0.99 0.33 1.98 0.66 3 1 C3 2.65 3 4.3 3 6 C1.35 5.67 -0.3 5.34 -2 5 C-1.34 4.67 -0.68 4.34 0 4 C0 2.68 0 1.36 0 0 Z " fill="#A67133" transform="translate(55,57)"/>
<path d="M0 0 C0.66 0.66 1.32 1.32 2 2 C1.34 4.31 0.68 6.62 0 9 C-0.66 8.67 -1.32 8.34 -2 8 C-1.125 2.25 -1.125 2.25 0 0 Z " fill="#755333" transform="translate(32,46)"/>
<path d="M0 0 C0.66 0 1.32 0 2 0 C1.67 2.31 1.34 4.62 1 7 C0.01 7 -0.98 7 -2 7 C-2 5.35 -2 3.7 -2 2 C-1.34 2 -0.68 2 0 2 C0 1.34 0 0.68 0 0 Z " fill="#C19A45" transform="translate(74,38)"/>
</svg>
